<?xml version="1.0" encoding="utf-8"?>
<!-- Generator: Adobe Illustrator 23.0.1, SVG Export Plug-In . SVG Version: 6.00 Build 0)  -->
<svg version="1.1" id="Calque_1" xmlns="http://www.w3.org/2000/svg" xmlns:xlink="http://www.w3.org/1999/xlink" x="0px" y="0px"
   viewBox="0 0 143 157.7" style="enable-background:new 0 0 143 157.7;" xml:space="preserve">
<style type="text/css">
  .st0{fill:#860CE6;}
  .st1{fill:#FFFFFF;}
  .st2{font-family:'ShadowsIntoLightTwo-Regular';}
  .st3{font-size:24.6392px;}
</style>
<g>
  <g>
    <g>
      <path d="M83.8,52.2c4.4,7.9,5.4,18.5-3.9,23.3c-8.5,4.4-18.5,4.7-22.6-5.2C54,62.4,54,52.5,62.8,48.9c7.2-3,15.5-3.8,20.7,2.9
        c4.1,5.2,11.4-2.1,7.3-7.3c-8.5-10.9-24.7-9.6-35.7-3.4c-12.8,7.3-12.5,26-5.3,37.5c7.9,12.6,23.2,12.4,35.3,5.9
        c14.3-7.7,14.8-24.6,7.6-37.4C89.4,41.2,80.5,46.4,83.8,52.2L83.8,52.2z"/>
    </g>
    <g>
      <path d="M114.6,39.9c18.6,41.7-20.2,78.7-45.8,107.7c2.4,0,4.9,0,7.3,0c-24.5-25.8-55.7-59.4-50.7-98.1
        c5.6-43.4,77.6-54.4,91.5-10.2c2,6.3,12,3.6,10-2.7C112.4-9.9,54.7-6.9,26.2,23.9C-11.5,64.6,41,125.7,68.9,155
        c1.8,1.9,5.5,2.1,7.3,0c30.3-34.4,69.2-71.5,47.4-120.3C120.8,28.7,111.9,33.9,114.6,39.9L114.6,39.9z"/>
    </g>
  </g>
  <g>
    <path class="st0" d="M0.4,47.7c0.1-1-0.2-1.8,2.9-2.6c1.2-0.3,3.1-0.6,3.1-0.6s2.5-0.2,4-0.2c2.5,0,2.3,0,5.4-0.2S17.8,44,22,44
      s1.7,0,6.8,0s1.9,0,5.9,0.1s3.7,0.1,7.6,0.1s5.4,0,7.9,0c2.5,0,0.1,0,4.1,0s2.8,0,6.4,0c3.6,0,5.7,0,7.1,0c1.4,0,5.5,0,7.5,0
      s5.2,0,5.9,0c0.7,0,6.4,0,7.1,0s5.9,0,6.5,0c0.5,0,5.6,0,5.9,0c0.3,0,4.4,0,4.7,0s8.1,0,8.5,0c0.4,0,9-0.1,9.3-0.1
      c0.3,0,2.3,0,3.1,0s2.7,0,3.4,0.1s4.3,0.2,5,0.2c0.7,0,1.5,0.1,2.1,0.1c0.6,0,0.8,0,1.2,0.1s0.5,0,1,0.1c0.5,0.1,0.7,0.2,0.9,0.2
      c0.2,0.1,0.2,0.1,0.5,0.2c0.2,0.2,0.2,0.1,0.5,0.3s0.7,0.8,0.7,0.9c0.1,0.1,0-0.1,0.4,0.7c0.4,0.8,0.5,0.8,0.5,1
      c0.3,2.1-0.3,13.2-0.3,13.3s-0.1,1.7-0.1,1.7c0,0.1,0,1.1,0,1.1s0,1.5,0,1.5s0,1.9,0,2s0.1,2,0.1,2s0.1,2.1,0.1,2.2s0,3.6,0,3.6
      s0.2,1.3,0.2,1.4c0,0,0.1,0.2,0,0.4s-0.1,0.3-0.3,0.5c-0.3,0.2-0.3,0.3-0.8,0.4c-0.4,0.1-0.5,0.2-0.9,0.3s-0.6,0.2-1,0.2
      s-0.7,0.2-1,0.2c-0.3,0-0.6,0.1-1.2,0.2c-0.6,0.1-0.4,0.1-1,0.2c-0.5,0.1-1,0.1-1.5,0.2c-0.5,0-1.3,0.1-1.7,0.2
      c-0.5,0-1.6,0.1-2,0.1c-0.3,0-1.9,0.1-2.1,0.1s-2.3,0.1-2.7,0.1s-0.9,0-1.2,0c-0.3,0-1.5,0-1.7,0c-0.2,0-2,0-2.2,0
      c-0.3,0-2.4,0-4.3,0c-2,0-3.5,0-4.5-0.1c-1,0-4.6-0.1-4.9-0.1c-0.3,0-4.7-0.1-5-0.1c-0.3,0-4.8,0-5.2,0s-4,0-4.4,0
      c-0.4,0-3.5,0-3.9,0c-0.4,0-3.8,0-4,0s-4.8,0-5,0s-3.4,0-3.3,0c0.1,0-5.1,0-4.7,0c0.4,0-4.5,0-4.2,0s-6.4,0-6,0
      c0.5,0-7.8,0.1-7.4,0.1s-7.2,0-7,0s-6.4,0-6.2,0s-6.4,0-6,0s-6-0.1-5.4,0c0.7,0-6.2-0.1-5.8-0.1s-2.4-0.1-2.1,0
      c0.3,0-2.6-0.1-2.4-0.1c0.2,0-2-0.1-1.8-0.1s-2.3-0.1-2.1-0.1c0.2,0-2.3-0.1-1.9-0.1c0.4,0-2.4-0.2-1.9-0.1c0.5,0-1.6-0.1-1.3-0.1
      c0.3,0-1-0.1-0.8-0.1c0.2,0-1.6-0.2-1.2-0.1c0.3,0-1.5-0.2-1.4-0.2c0.1,0-1.4-0.2-1-0.2c0.4,0-1.3-0.2-1.1-0.2
      c0.2,0-1-0.2-0.7-0.2c0.3,0.1-1-0.3-0.8-0.2c0.3,0.1-0.2-0.1-0.3-0.2c-0.2-0.1-0.5-0.3-0.8-0.5c-0.3-0.3-0.7-0.3-0.9-0.6
      s-0.4-0.3-0.6-0.6c0-0.1-0.4-8.5-0.2-9.8S0.5,58,0.5,57C0.5,54.8,0.4,47.7,0.4,47.7z"/>
    <text transform="matrix(1 0 0 1 3.4343 72.321)" class="st1 st2 st3">Mind the Map</text>
  </g>
</g>
</svg>
