<?xml version="1.0" encoding="utf-8"?>
<!-- Generator: Adobe Illustrator 23.0.1, SVG Export Plug-In . SVG Version: 6.00 Build 0)  -->
<svg version="1.1" id="Calque_1" xmlns="http://www.w3.org/2000/svg" xmlns:xlink="http://www.w3.org/1999/xlink" x="0px" y="0px"
	 viewBox="0 0 52 65" style="enable-background:new 0 0 52 65;" xml:space="preserve">
<g>
	<g>
		<path d="M30.6,23.3c-1.2,2.2-2.8,5.9-5.2,7c-2.2,1-5.4,0.7-7.7,0.2c-5.5-1.3-7-7.3-5.7-12.2c0.5-1.9,1.8-5,3.4-6.5
			c2.4-2.1,5.3-0.8,7.9-0.2c6.4,1.4,7.8,5.8,6.6,11.7c-0.3,1.7,2.3,2.3,2.6,0.6c0.7-3.6,1.2-5.6-0.4-9c-1.6-3.3-3.2-4.7-6.7-5.6
			c-3-0.8-7.1-2.2-10.1-0.7c-2.9,1.4-4.7,5.4-5.7,8.3c-1.8,5.6-0.5,13.6,5.7,15.7c3.3,1.1,7.5,1.5,10.8,0.2c3.5-1.3,5.1-5.1,6.8-8.2
			C33.8,23,31.4,21.7,30.6,23.3L30.6,23.3z"/>
	</g>
	<g>
		<path d="M31.9,30.6c-1,2.9-5.5,3.7-8.1,4.4c-4.3,1.1-10.1,0.5-13.3-3.1c-4.3-4.8-4-15.7-0.3-20.6c3.2-4.3,11.1-5.7,16-4
			c9.8,3.4,8.9,15,6.6,23c-0.5,1.6,2.1,2.3,2.6,0.6C37,25.2,38.3,19.6,36,14c-1.5-3.8-3.5-7.8-7.6-9C21.1,2.9,10,3.7,6.8,11.8
			c-1.6,4-3.1,10-1.7,14.2c1.3,4.1,3.2,9,7.4,10.7c3.4,1.4,7.8,2.4,11.4,1.2c4.2-1.4,9.2-2,10.7-6.7C35.1,29.6,32.5,29,31.9,30.6
			L31.9,30.6z"/>
	</g>
	<g>
		<path d="M36,42.4c1.2,2.2,2.6,4.4,4.2,6.4c1.2,1.5,2.6,2.9,3.6,4.6c1.3,1.4,1.1,2.9-0.4,4.3c-1.1,1-2,1-2.8,0.1
			c-1.8-1.2-2.9-4.5-4.3-6.3c-1.1-1.4-1.7-2.6-2.3-4.2c-0.2-0.7-0.5-1.4-0.8-2.1C32.4,43.9,33.4,42.9,36,42.4
			c1.4,1.1,3.2-0.8,1.9-1.9c-3.1-2.6-9.1-1.9-8.2,3.3c0.4,2.4,1.8,5.6,3.1,7.7c0.9,1.4,2,2.5,2.9,3.8c0.8,1.3,1.3,2.9,2.3,4.1
			c2.5,3.2,8,1.4,9.2-2.1c0.8-2.4-0.8-4.9-2.2-6.7c-2.4-3.1-4.8-6-6.8-9.4C37.4,39.5,35.2,40.9,36,42.4L36,42.4z"/>
	</g>
	<g>
		<path d="M28.1,36.2c0.7,1.1,1.3,2.3,1.8,3.6c0.3,0.7,0.9,1.1,1.7,0.9c0.6-0.2,1.2-1,0.9-1.7c-0.6-1.5-1.3-2.9-2.1-4.2
			C29.5,33.4,27.2,34.8,28.1,36.2L28.1,36.2z"/>
	</g>
	<g>
		<path d="M36.8,42.7c-1.5,0.5-2.9,1-4.1,2.1c-0.5,0.5-0.4,1.4,0,1.9c0.6,0.5,1.3,0.4,1.9,0c0.8-0.7,1.9-1,2.9-1.3
			C39.2,44.7,38.4,42.1,36.8,42.7L36.8,42.7z"/>
	</g>
	<g>
		<path d="M42.7,52.7c-1.5,1.7-3.4,2-5.6,2.1c-1.7,0.1-1.6,2.8,0.1,2.7c2.8-0.2,5.5-0.7,7.4-2.9C45.7,53.2,43.8,51.4,42.7,52.7
			L42.7,52.7z"/>
	</g>
</g>
</svg>
