<?xml version="1.0" encoding="utf-8"?>
<!-- Generator: Adobe Illustrator 23.0.1, SVG Export Plug-In . SVG Version: 6.00 Build 0)  -->
<svg version="1.1" id="Calque_1" xmlns="http://www.w3.org/2000/svg" xmlns:xlink="http://www.w3.org/1999/xlink" x="0px" y="0px"
	 viewBox="0 0 52 65" style="enable-background:new 0 0 52 65;" xml:space="preserve">
<style type="text/css">
  .st0{fill:#fff;}
</style>
<g>
	<g>
		<path class="st0" d="M16.9,4.9C20,4.7,23,4.6,26.1,4.4c3.9-0.3,4.8-0.9,6.6,2.3c2.7,4.6,5.3,9,8.6,13.2c0.6,0.8,2.6,2.5,2.8,3.4
			c-0.7,1.4-1.4,2.8-2.1,4.1c-0.5-0.5-0.9-1-1.4-1.5c-2.5-1.6-4.7-4.8-7-6.8c-2.5-2.2-4.6-4.7-8.1-3.2c-5.8,2.5-6.6,10.4-2.3,14.6
			C29,36,35.8,30.1,38,24.5c0.7-1.9-2.3-2.7-3-0.8c-0.7,4.2-2.9,5.2-6.5,2.9c-4.9,0.5-6.1-1.6-3.5-6.2c1.6-1.3,3.7-1,5.7,0.1
			c3.2,1.9,5.8,5.7,8.5,8.3c2,2,6.2,5.1,9.3,3c3.2-2.2,1.1-6.6-0.5-8.9c-4.5-6.8-11.5-12.7-13.4-21c-0.1-0.6-0.9-1.2-1.5-1.2
			c-5.3,0.4-10.7,0.8-16,1C14.9,1.8,14.9,5,16.9,4.9L16.9,4.9z"/>
	</g>
	<g>
		<path class="st0" d="M14.8,3.9c0,3.9-0.1,7.7-0.1,11.6c-0.1,4.6,0.6,9.9-1.7,14.1c-2.7,4.9-9.1,7.7-10.7,13.3c-0.8,2.9-0.1,5.8,2.9,6.9
			c4.3,1.5,7.7-2.9,9.9-5.9c0.9-1.2,1.5-3.5,3-3.1c1.4,0.3,0.8,3.6,0.8,4.8c0,3.8-0.1,7.6,0,11.5c0.1,3.2-0.2,6.3,3.5,7.1
			c3,0.6,5.6-0.5,6.5-3.4c0.8-2.7,0.1-6.8,0.1-9.6c0-4.4,0-8.7,0.1-13.1c-0.7,0.5-1.3,1-2,1.5c3.7,1.4,10.1,3.2,13.9,1.1
			c3-1.6,4-6.2,4.5-9.2c0.3-2-2.7-2.8-3-0.8c-1.4,8.6-7.9,8.4-14.5,6c-1-0.4-2,0.6-2,1.5c0,5.9,1.2,13.4-0.1,19.1
			c0.6,2-0.1,3.3-2.1,4c-1.7-0.9-2.2-2.3-1.7-4.1c-0.4-2.1,0-4.7,0-6.9c0-2.8,2-16.3-4.9-13.8c-3.3,1.2-3.9,7.9-7,8.6
			c-3.5-2.2-4-4.2-1.6-5.9c0.9-1,1.8-1.9,2.7-2.9c1.5-1.6,3-3.2,4.3-4.9c2.1-2.8,2.1-5.4,2.1-8.8c0.1-6.2,0.1-12.4,0.2-18.6
			C17.9,1.8,14.8,1.8,14.8,3.9L14.8,3.9z"/>
	</g>
</g>
</svg>
