<?xml version="1.0" encoding="utf-8"?>
<!-- Generator: Adobe Illustrator 23.0.1, SVG Export Plug-In . SVG Version: 6.00 Build 0)  -->
<svg version="1.1" id="Calque_1" xmlns="http://www.w3.org/2000/svg" xmlns:xlink="http://www.w3.org/1999/xlink" x="0px" y="0px"
	 viewBox="0 0 376 99" style="enable-background:new 0 0 376 99;" xml:space="preserve">
<style type="text/css">
	.st0{fill:#FFFFFF;}
</style>
<path class="st0" d="M1,12.3c0.2-2.6-0.6-4.7,7.5-6.8c3.2-0.8,8.1-1.6,8.1-1.6s6.5-0.5,10.5-0.5c6.6,0,5.9-0.1,14-0.4
	s5.6-0.3,16.6-0.4s4.5-0.1,17.7,0s4.9,0,15.5,0.2s9.8,0.2,19.8,0.3s14,0,20.6,0s0.2,0,10.8,0s7.4,0,16.7,0s14.8,0,18.5-0.1
	s14.5,0,19.6,0s13.5,0,15.3,0c1.7,0,16.7,0,18.6,0c1.9,0,15.5,0,16.9,0s14.6,0,15.5,0s11.4,0,12.3,0s21.3,0,22.2,0
	c1,0,23.6-0.2,24.3-0.2c0.7,0,6.1,0,8.1,0s7,0.1,9,0.2s11.3,0.4,13.2,0.5c1.9,0.1,4,0.2,5.5,0.3s2.1,0.1,3.2,0.3
	c1.1,0.2,1.3,0.1,2.5,0.3c1.2,0.3,1.9,0.4,2.4,0.6s0.6,0.2,1.2,0.6s0.6,0.3,1.2,0.9s1.8,2.1,1.9,2.3c0.2,0.3,0.1-0.3,1.1,1.7
	s1.2,2.2,1.3,2.5c0.8,5.5-0.7,34.6-0.7,34.8s-0.2,4.4-0.2,4.5c0,0.2,0,2.8,0,3s0,3.8,0,4s0.1,5,0.1,5.1s0.2,5.1,0.2,5.3
	c0,0.2,0.3,5.6,0.3,5.7s0,9.3,0,9.4s0.6,3.5,0.6,3.6s0.2,0.6,0,1.1s-0.2,0.9-0.9,1.3c-0.8,0.5-0.9,0.7-2,1s-1.4,0.5-2.4,0.8
	S366,93,365,93.2s-1.9,0.4-2.7,0.5s-1.6,0.3-3.2,0.6c-1.6,0.2-1.1,0.2-2.5,0.4c-1.4,0.2-2.6,0.3-3.9,0.4s-3.3,0.3-4.4,0.4
	c-1.2,0.1-4.3,0.3-5.1,0.3s-4.9,0.2-5.5,0.2s-6,0.2-7,0.2s-2.4,0-3.2,0c-0.8,0-3.8,0-4.4,0s-5.1,0.1-5.8,0c-0.7-0.1-6.2,0-11.2-0.1
	c-5.1-0.1-9.2-0.1-11.8-0.2s-12.1-0.2-12.9-0.3s-12.3-0.2-13.2-0.2c-0.9,0-12.5,0-13.5,0s-10.4,0-11.5,0c-1,0-9.1,0-10.2,0
	s-10,0-10.5,0s-12.5,0-13.2,0s-9,0-8.7,0s-13.4-0.1-12.3-0.1c1.1,0-11.8,0-11,0s-16.8,0.1-15.6,0.1s-20.3,0.2-19.4,0.2
	c0.9,0-18.9,0.1-18.2,0.1c0.7,0-16.7,0-16.3,0c0.4,0-16.8-0.1-15.8-0.1s-15.7-0.2-14-0.1c1.7,0-16.1-0.3-15.2-0.3s-6.4-0.2-5.5-0.1
	c0.9,0-6.8-0.2-6.2-0.2s-5.1-0.2-4.6-0.2s-6.1-0.3-5.5-0.2s-6-0.3-4.9-0.3c1.1,0.1-6.2-0.4-4.9-0.3s-4.1-0.3-3.3-0.2
	c0.8,0.1-2.6-0.2-2.1-0.2s-4.1-0.4-3.2-0.3s-4-0.5-3.7-0.4c0.3,0-3.7-0.5-2.7-0.4s-3.5-0.6-2.9-0.5c0.5,0.1-2.6-0.6-1.9-0.4
	c0.7,0.2-2.7-0.9-2-0.6c0.7,0.2-0.5-0.2-0.9-0.4c-0.4-0.2-1.3-0.7-2.1-1.4S4.6,88.3,4,87.5s-1.1-0.9-1.5-1.6
	c-0.1-0.3-1-22.1-0.6-25.6S1.4,39.1,1.3,36.7C1.3,30.8,1,12.3,1,12.3z"/>
</svg>
