<?xml version="1.0" encoding="utf-8"?>
<!-- Generator: Adobe Illustrator 23.0.1, SVG Export Plug-In . SVG Version: 6.00 Build 0)  -->
<svg version="1.1" id="Calque_1" xmlns="http://www.w3.org/2000/svg" xmlns:xlink="http://www.w3.org/1999/xlink" x="0px" y="0px"
	 viewBox="0 0 350 650" style="enable-background:new 0 0 350 650;" xml:space="preserve" preserveAspectRatio="none">
<style type="text/css">
	.st0{fill:#860CE6;}
</style>
<path class="st0" d="M349.9,582.9c-0.2,18.1,0.6,32.6-7,47.1c-3,5.8-7.6,11.3-7.6,11.3s-6.1,3.2-9.9,3.2c-6.2,0-5.5,1-13.1,2.6
	c-7.6,1.6-5.2,2.4-15.5,2.5c-10.4,0-4.2,0.9-16.5-0.3s-4.6-0.3-14.5-1.4c-10-1.1-9.1-1.6-18.5-1.8c-9.4-0.3-13.1-0.3-19.3-0.2
	c-6.2,0.1-0.2,0-10.1,0.1c-9.9,0.2-6.9,0.1-15.6,0.3c-8.6,0.2-13.8,0.3-17.3,0.3s-13.6,0.2-18.3,0.3c-4.7,0-12.6,0.1-14.3,0.1
	s-15.6,0-17.4,0s-14.5,0-15.8,0c-1.3,0-13.7,0-14.6,0c-0.9,0-10.6,0-11.5,0c-0.9,0-19.9,0-20.8,0c-0.9,0-22.1,1.5-22.8,1.5
	c-0.7,0-5.7,0.2-7.6,0.1c-1.9-0.1-6.6-0.6-8.4-1c-1.9-0.5-10.6-3.1-12.4-3.6c-1.8-0.6-3.7-1.2-5.1-2c-1.4-0.8-2-0.9-3-1.9
	c-1.1-0.9-1.2-0.7-2.3-2.4c-1.1-1.7-1.8-2.9-2.2-4.3c-0.4-1.4-0.6-1.1-1.1-3.9c-0.6-2.6-0.6-2.2-1.1-5.9c-0.5-3.7-1.6-14.5-1.8-16.2
	c-0.2-1.7-0.9-10.7-1.1-12c-0.1-1.4-1.1-15.4-1.2-17c-0.1-1.6-1-19-1-20.3c0-1.2-0.7-19.9-0.7-21.6c0-1.6-0.3-16.7-0.3-18
	c0-1.4-0.1-24.9-0.1-26.5c0-1.7,0.3-31.3,0.3-32.9c0-1.6,0.9-43.4,0.9-45c0-1.6,0.8-32.9,0.8-33.8c0-0.9,0.8-41.9,0.8-43.2
	s0.2-30.4,0.2-31.5c0-1.1,0-19.6,0-20.9c0-1.2,0-26.3,0-27.4c0-1.1-0.1-34.3-0.1-35.4c0-0.9-0.2-35.4-0.2-36.4
	c0-1.1-0.2-38.9-0.2-39.9c0-0.9,0-64.8,0-65.5S1.9,56,1.9,55.3c0-0.7-0.2-4,0-7.5s0.2-6,0.9-9.3s0.9-4.6,1.9-7.1S6,28,7,26.2
	c1-1.8,1.5-2.7,2.4-4.2s1.8-2.7,2.5-3.7s1.5-2.3,3-3.9c1.5-1.6,1-1.2,2.4-2.5c1.3-1.2,2.4-2.2,3.6-3.1c1.3-0.9,3.1-2,4.2-2.6
	s4-1.9,4.8-2.2s4.4-1.9,5-2s5.6-1.1,6.5-1.2c0.9-0.1,2.2-0.2,3-0.3s3.6-0.2,4.2-0.2c0.5,0,4.8-0.6,5.5,0c0.7,0.6,5.8,0,10.5,0.6
	c4.7,0.5,8.6,0.9,11,1.2c2.4,0.3,11.3,1.6,12,1.7c0.7,0.1,11.5,1.5,12.4,1.5c0.9,0.1,11.7,0.1,12.6,0.1c0.9,0,9.8,0,10.7,0
	s8.5,0,9.6,0s9.3,0.1,9.9,0.1c0.5,0,11.7,0.2,12.4,0.2c0.7,0,8.4,0.2,8.1,0.2c-0.3,0,12.5,0.5,11.5,0.5s11.1,0,10.3,0
	s15.7-1,14.6-0.9c-1.1,0.1,19-1.2,18.2-1.1c-0.8,0,17.7-0.8,17-0.7c-0.7,0.1,15.6-0.3,15.2-0.3c-0.4,0,15.7,0.3,14.8,0.3
	s14.7,1,13.1,0.9c-1.6-0.1,15,1.9,14.2,1.8c-0.8-0.1,6,1.1,5.1,0.9c-0.9-0.2,6.4,1.5,5.8,1.2c-0.6-0.1,4.8,1.2,4.3,1.1
	c-0.5-0.1,5.7,1.8,5.2,1.6s5.6,2.2,4.6,1.7c-1-0.5,5.8,2.7,4.6,2c-1.2-0.6,3.8,2,3.1,1.7c-0.7-0.5,2.4,1.5,2,1.1
	c-0.4-0.2,3.8,2.6,3,2c-0.8-0.6,3.8,3.2,3.5,2.8c-0.3-0.2,3.4,3.5,2.5,2.5s3.3,4.2,2.8,3.5s2.4,4.1,1.8,2.9
	c-0.6-1.1,2.5,5.9,1.9,4.3c-0.6-1.6,0.5,1.2,0.9,2.8c0.4,1.6,1.2,4.8,1.9,9.7c0.7,5,1.7,5.7,2.2,11c0.5,5.3,1.1,6.5,1.4,11.3
	c0.3,3.6,1.9,344.2,1,384.1C348.8,494.9,349.9,582.9,349.9,582.9z"/>
</svg>
