<?xml version="1.0" encoding="utf-8"?>
<!-- Generator: Adobe Illustrator 23.0.1, SVG Export Plug-In . SVG Version: 6.00 Build 0)  -->
<svg version="1.1" id="Calque_1" xmlns="http://www.w3.org/2000/svg" xmlns:xlink="http://www.w3.org/1999/xlink" x="0px" y="0px"
	 viewBox="0 0 600 800" style="enable-background:new 0 0 600 800;" xml:space="preserve">
<style type="text/css">
	.st0{fill:#ffffff;}
</style>
<path class="st0" d="M81.6,771.8c-15.4-0.4-27.6,1.3-39.9-14.9c-4.9-6.4-9.6-16.1-9.6-16.1s-2.7-13-2.7-20.9
	c0-13.1-0.8-11.8-2.2-27.9c-1.4-16.1-2.1-11-2.1-33c0-22-0.7-8.9,0.3-35.1c1-26.3,0.3-9.7,1.2-30.9c0.9-21.1,1.3-19.5,1.6-39.3
	s0.3-27.9,0.2-41c-0.1-13.1,0-0.4-0.1-21.4C28.1,470,28.1,476.4,28,458c-0.2-18.4-0.2-29.4-0.3-36.7c-0.1-7.3-0.2-28.8-0.3-38.9
	c0-10.1-0.1-26.9-0.1-30.3c0-3.5,0-33.2,0-37s0-30.8,0-33.6s0-29.1,0-30.9s0-22.6,0-24.4c0-1.9,0-42.3,0-44.2s-1.2-47-1.3-48.4
	c0-1.4-0.2-12.1-0.1-16.2c0.1-4.1,0.5-14,0.9-18c0.4-3.9,2.5-22.5,3.1-26.2c0.5-3.8,1.1-7.9,1.7-10.9s0.8-4.1,1.6-6.4
	c0.8-2.2,0.5-2.6,2-5c1.5-2.4,2.5-3.8,3.6-4.8c1.1-0.9,1-1.2,3.2-2.4s1.8-1.3,5-2.4c3.2-1.1,12.3-3.5,13.7-3.8s9-2,10.1-2.2
	c1.1-0.2,13-2.3,14.4-2.6s16.1-2.1,17.2-2.2s16.9-1.4,18.3-1.5c1.4-0.1,14.1-0.6,15.3-0.6c1.2,0,21.1-0.2,22.5-0.2
	c1.4,0,26.5,0.6,27.8,0.7s36.8,1.9,38.1,1.9s27.8,1.6,28.6,1.7c0.8,0,35.5,1.6,36.5,1.6s25.7,0.3,26.7,0.3c0.9,0,16.6,0,17.6,0
	c1,0,22.3,0,23.2,0c0.9,0,29.1-0.1,29.9-0.2c0.8,0,29.9-0.3,30.8-0.4c0.9,0,32.9-0.5,33.8-0.5s54.9,0,55.4,0
	c0.6,0,20.5-1.1,21.1-1.2c0.6,0,3.3-0.3,6.3,0.1c3,0.4,5,0.3,7.9,1.9c2.9,1.5,3.9,1.9,6,4c2.1,2.1,2.9,2.8,4.4,4.9
	c1.5,2.1,2.3,3.1,3.6,5.1c1.2,2,2.3,3.7,3.2,5.4c0.9,1.7,1.9,3.2,3.3,6.3s1.1,2.2,2.1,5c1,2.9,1.8,5.1,2.6,7.7
	c0.7,2.7,1.7,6.5,2.2,8.8c0.5,2.3,1.6,8.6,1.9,10.2c0.2,1.6,1.3,9.7,1.4,11c0.1,1.3,1,11.9,1.1,13.9s0.2,4.8,0.3,6.4
	c0.1,1.6,0.2,7.6,0.2,8.8c0,1.2,0.4,10.2,0,11.6s0,12.2-0.4,22.3c-0.4,10.1-0.8,18.3-1.1,23.4c-0.3,5.1-1.4,24.1-1.5,25.6
	c-0.1,1.5-1.2,24.4-1.3,26.3c-0.1,1.9-0.1,24.9-0.1,26.9c0,2,0,20.7,0,22.8s0,18.1,0,20.4c0,2.3-0.1,19.8-0.1,21
	c0,1.2-0.2,24.9-0.2,26.3s-0.2,17.8-0.2,17.3c0-0.6-0.4,26.6-0.3,24.4c0-2.2,0,23.5,0,21.9c0-1.6,0.9,33.3,0.8,31
	c-0.1-2.3,1,40.3,1,38.6s0.6,37.5,0.6,36.1c0-1.4,0.2,33.2,0.2,32.4c0-0.8-0.3,33.5-0.3,31.5c0-2-0.9,31.3-0.8,27.8
	c0.1-3.5-1.7,31.9-1.5,30.2s-0.9,12.8-0.8,10.9c0.1-1.9-1.2,13.6-1.1,12.4c0.1-1.3-1.1,10.2-1,9.2c0.1-1-1.5,12.2-1.4,11
	c0.2-1.2-1.8,12-1.5,9.8c0.3-2.1-2.3,12.3-1.8,9.7c0.5-2.6-1.8,8.2-1.4,6.6c0.4-1.6-1.2,5.1-1,4.2c0.2-1-2.2,8.1-1.7,6.3
	c0.5-1.7-2.7,8-2.4,7.4s-3,7.3-2.1,5.3s-3.6,6.9-3,5.9s-3.5,5.2-2.5,3.9c0.9-1.3-5,5.3-3.6,4c1.4-1.3-1.1,1.1-2.4,1.9
	c-1.4,0.8-4,2.6-8.3,4.1s-4.8,3.6-9.3,4.7c-4.5,1.2-5.4,2.2-9.6,3C510.5,770.1,81.6,771.8,81.6,771.8z"/>
</svg>
