<?xml version="1.0" encoding="utf-8"?>
<!-- Generator: Adobe Illustrator 23.0.1, SVG Export Plug-In . SVG Version: 6.00 Build 0)  -->
<svg version="1.1" id="Calque_1" xmlns="http://www.w3.org/2000/svg" xmlns:xlink="http://www.w3.org/1999/xlink" x="0px" y="0px"
	 viewBox="0 0 873 591" style="enable-background:new 0 0 873 591;" xml:space="preserve" preserveAspectRatio="none">
<style type="text/css">
	.st0{fill:#860CE6;}
</style>
<path class="st0" d="M863.5,520.4c-0.5,16,1.4,28.8-17.2,41.6c-7.4,5.1-18.6,10-18.6,10s-15,2.8-24.2,2.8c-15.2,0-13.6,0.9-32.2,2.3
	s-12.7,2.1-38.1,2.2c-25.4,0-10.2,0.8-40.5-0.3s-11.2-0.3-35.6-1.2c-24.4-1-22.4-1.4-45.4-1.6c-23-0.3-32.2-0.3-47.4-0.2
	c-15.1,0.1-0.4,0-24.7,0.1c-24.3,0.2-17,0.1-38.2,0.3s-33.9,0.3-42.3,0.3s-33.3,0.2-44.9,0.3c-11.6,0-31,0.1-35,0.1s-38.3,0-42.7,0
	c-4.4,0-35.5,0-38.7,0s-33.5,0-35.7,0c-2.1,0-26,0-28.2,0s-48.8,0-51,0s-54.2,1.3-55.8,1.3s-14,0.2-18.7,0.1s-16.2-0.5-20.7-0.9
	c-4.6-0.4-25.9-2.7-30.3-3.2c-4.3-0.5-9.1-1.1-12.6-1.8s-4.8-0.8-7.3-1.7c-2.6-0.8-3-0.6-5.7-2.1s-4.4-2.6-5.5-3.8s-1.4-1-2.8-3.4
	c-1.4-2.3-1.5-1.9-2.7-5.2s-4-12.8-4.4-14.3s-2.3-9.4-2.6-10.6s-2.7-13.6-2.9-15s-2.4-16.8-2.5-17.9S6.8,481,6.7,479.5
	C6.6,478.1,6,464.8,6,463.6c0-1.2-0.2-22-0.2-23.4c0-1.5,0.7-27.6,0.8-29c0.1-1.4,2.1-38.3,2.2-39.7c0.1-1.4,1.9-29,1.9-29.8
	c0.1-0.8,1.9-37,1.9-38.1s0.4-26.8,0.4-27.8s0-17.3,0-18.4s0-23.2,0-24.2s-0.2-30.3-0.2-31.2c0-0.8-0.4-31.2-0.4-32.1
	c0-1-0.6-34.3-0.6-35.2c0-0.8,0-57.2,0-57.8s-1.3-21.4-1.3-22s-0.4-3.5,0.1-6.6s0.4-5.3,2.1-8.2s2.1-4.1,4.6-6.3s3.2-3,5.6-4.6
	s3.6-2.4,5.9-3.7s4.3-2.4,6.2-3.3s3.6-2,7.3-3.4c3.6-1.4,2.5-1.1,5.8-2.2s5.9-1.9,8.9-2.7c3.1-0.8,7.5-1.8,10.2-2.3S77.1,9.9,79,9.7
	S89.8,8,91.3,7.9s13.7-1,16-1.1s5.5-0.2,7.4-0.3s8.8-0.2,10.2-0.2c1.3,0,11.8-0.5,13.4,0s14.1,0,25.8,0.5c11.6,0.4,21.1,0.8,27,1.1
	s27.8,1.4,29.5,1.5c1.7,0.1,28.2,1.3,30.3,1.3c2.1,0.1,28.7,0.1,31,0.1c2.3,0,23.9,0,26.3,0s20.8,0,23.5,0s22.8,0.1,24.2,0.1
	c1.3,0,28.7,0.2,30.3,0.2c1.6,0,20.6,0.2,19.9,0.2s30.7,0.4,28.2,0.4s27.1,0,25.2,0s38.5-0.9,35.8-0.8c-2.7,0.1,46.5-1.1,44.5-1
	c-2,0,43.3-0.7,41.7-0.6S619.8,9,618.8,9c-0.9,0,38.6,0.3,36.3,0.3s36.1,0.9,32.1,0.8c-4-0.1,36.8,1.7,34.8,1.6
	c-2-0.1,14.7,1,12.6,0.8c-2.2-0.2,15.7,1.3,14.3,1.1c-1.5-0.1,11.8,1.1,10.6,1s14,1.6,12.7,1.4c-1.3-0.2,13.8,1.9,11.3,1.5
	s14.2,2.4,11.2,1.8c-3-0.5,9.4,1.8,7.6,1.5c-1.8-0.4,5.9,1.3,4.8,1c-1.1-0.2,9.3,2.3,7.3,1.8s9.2,2.8,8.5,2.5
	c-0.7-0.2,8.4,3.1,6.1,2.2c-2.3-0.9,8,3.7,6.8,3.1s6,3.6,4.4,2.6c-1.5-1,6.1,5.2,4.6,3.8s1.2,1.1,2.1,2.5c0.9,1.4,3,4.2,4.7,8.6
	s4.1,5,5.5,9.7c1.3,4.7,2.6,5.7,3.4,10c0.7,3.2,4.7,303.7,2.5,338.9S863.5,520.4,863.5,520.4z"/>
</svg>
