<?xml version="1.0" encoding="utf-8"?>
<!-- Generator: Adobe Illustrator 23.0.1, SVG Export Plug-In . SVG Version: 6.00 Build 0)  -->
<svg version="1.1" id="Calque_1" xmlns="http://www.w3.org/2000/svg" xmlns:xlink="http://www.w3.org/1999/xlink" x="0px" y="0px"
	 viewBox="0 0 50 50" style="enable-background:new 0 0 50 50;" xml:space="preserve">
<style type="text/css">
	.st0{fill:#860CE6;}
</style>
<g>
	<g>
		<g>
			<path class="st0" d="M2.3,6.1c8.2,7.7,16.6,15.3,24.7,23.1c6.1,5.8,11.1,13.2,18.7,17.2c1.9,1,3.5-1.8,1.7-2.8
				c-7.8-4.1-13.3-12.2-19.6-18.2C20.1,18.2,12.3,11,4.7,3.8C3.1,2.4,0.8,4.7,2.3,6.1L2.3,6.1z"/>
		</g>
	</g>
	<g>
		<g>
			<path class="st0" d="M47.7,6.1c1.5-1.4-0.8-3.7-2.3-2.3C37.7,11,29.9,18.2,22.3,25.4c-6.3,6-11.8,14.1-19.6,18.2
				c-1.9,1-0.2,3.8,1.7,2.8c7.6-4,12.6-11.3,18.7-17.2C31.1,21.4,39.4,13.8,47.7,6.1L47.7,6.1z"/>
		</g>
	</g>
</g>
</svg>
