<?xml version="1.0" encoding="utf-8"?>
<!-- Generator: Adobe Illustrator 23.0.1, SVG Export Plug-In . SVG Version: 6.00 Build 0)  -->
<svg version="1.1" id="Calque_1" xmlns="http://www.w3.org/2000/svg" xmlns:xlink="http://www.w3.org/1999/xlink" x="0px" y="0px"
	 viewBox="0 0 52 65" style="enable-background:new 0 0 52 65;" xml:space="preserve">
<style type="text/css">
  .st0{fill:#fff;}
</style>
<g>
	<g>
		<path class="st0" d="M35.1,60.1c-3.1,0.1-6.1,0.3-9.2,0.5c-3.9,0.3-4.8,0.9-6.6-2.3c-2.7-4.6-5.3-9-8.6-13.2C10,44.4,8,42.7,7.9,41.7
			c0.7-1.4,1.4-2.8,2.1-4.1c0.5,0.5,0.9,1,1.4,1.5c2.5,1.6,4.7,4.8,7,6.8c2.5,2.2,4.6,4.7,8.1,3.2c5.8-2.5,6.6-10.4,2.3-14.6
			C23,29,16.2,34.9,14,40.5c-0.7,1.9,2.3,2.7,3,0.8c0.7-4.2,2.9-5.2,6.5-2.9c4.9-0.5,6.1,1.6,3.5,6.2c-1.6,1.3-3.7,1-5.7-0.1
			c-3.2-1.9-5.8-5.7-8.5-8.3c-2-2-6.2-5.1-9.3-3c-3.2,2.2-1.1,6.6,0.5,8.9c4.5,6.8,11.5,12.7,13.4,21c0.1,0.6,0.9,1.2,1.5,1.2
			c5.3-0.4,10.7-0.8,16-1C37.1,63.2,37.1,60,35.1,60.1L35.1,60.1z"/>
	</g>
	<g>
		<path class="st0" d="M37.2,61.1c0-3.9,0.1-7.7,0.1-11.6c0.1-4.6-0.6-9.9,1.7-14.1c2.7-4.9,9.1-7.7,10.7-13.3c0.8-2.9,0.1-5.8-2.9-6.9
			c-4.3-1.5-7.7,2.9-9.9,5.9c-0.9,1.2-1.5,3.5-3,3.1c-1.4-0.3-0.8-3.6-0.8-4.8c0-3.8,0.1-7.6,0-11.5c-0.1-3.2,0.2-6.3-3.5-7.1
			c-3-0.6-5.6,0.5-6.5,3.4C22.3,7,23,11.1,23,13.9c0,4.4,0,8.7-0.1,13.1c0.7-0.5,1.3-1,2-1.5c-3.7-1.4-10.1-3.2-13.9-1.1
			c-3,1.6-4,6.2-4.5,9.2c-0.3,2,2.7,2.8,3,0.8c1.4-8.6,7.9-8.4,14.5-6c1,0.4,2-0.6,2-1.5c0-5.9-1.2-13.4,0.1-19.1
			c-0.6-2,0.1-3.3,2.1-4C29.9,4.9,30.5,6.2,30,8c0.4,2.1,0,4.7,0,6.9c0,2.8-2,16.3,4.9,13.8c3.3-1.2,3.9-7.9,7-8.6
			c3.5,2.2,4,4.2,1.6,5.9c-0.9,1-1.8,1.9-2.7,2.9c-1.5,1.6-3,3.2-4.3,4.9c-2.1,2.8-2.1,5.4-2.1,8.8c-0.1,6.2-0.1,12.4-0.2,18.6
			C34.1,63.2,37.2,63.2,37.2,61.1L37.2,61.1z"/>
	</g>
</g>
</svg>
