<?xml version="1.0" encoding="utf-8"?>
<!-- Generator: Adobe Illustrator 23.0.1, SVG Export Plug-In . SVG Version: 6.00 Build 0)  -->
<svg version="1.1" id="Calque_1" xmlns="http://www.w3.org/2000/svg" xmlns:xlink="http://www.w3.org/1999/xlink" x="0px" y="0px"
	 viewBox="0 0 50 50" style="enable-background:new 0 0 50 50;" xml:space="preserve">
<style type="text/css">
	.st0{fill:#FFFFFF;}
</style>
<g>
	<g>
		<path class="st0" d="M25.9,6.7c5.9,1.8,7.2,7.7,4.6,12.7c-1.3,2.4-2.9,4-3.5,6.8c-0.8,3.5,2.9,5.6,5.4,6.9c1.2,0.6,2.4,0.8,3.7,1
			c3.2,0.4,5.2,2.2,8.1,3c2.8,2.4,2.5,4.2-1,5.4c-2.2,0.1-4.4,0-6.7,0c-3.7,0-7.4,0.1-11.1,0.1c-3,0-5.9,0-8.9,0.1c-1.5,0-3,0-4.4,0
			c-0.7,0-1.5,0-2.2,0c-3,0.7-4.5-1-4.7-4.9c3.4-4.4,11.6-2.5,15.6-6.2c2.2-2,3.4-4.2,2.4-7.1c-1.2-3.5-3.6-0.3-4.4-6.5
			c-0.7-4.9,0.4-10.5,6.5-11.1c1.8-0.2,1.8-3,0-2.8c-5.5,0.6-8.6,4-9.3,9.4c-0.3,2.3-0.3,5.8,0.8,8c0.5,1,1,2,2,2.7
			c6.9,4.7-6.6,7.7-7.7,8C7.6,33-0.6,35.9,1.3,41.3c0.9,2.4,1.8,3.3,4.2,4.1c4.2,1.4,11,0.1,15.5,0c5.2,0,10.3-0.1,15.5-0.1
			c2.7,0,7.9,1,10.3-0.6c3.1-2,2.8-8.7-1-10.1c-2.7-1-5.1-2.9-8-3.2c-4.6-0.5-9.9-3.6-6.1-9.1c1.2-1.7,2-3.1,2.5-5.2
			C36,11,32.5,5.8,26.6,4C24.9,3.5,24.1,6.2,25.9,6.7L25.9,6.7z"/>
	</g>
</g>
</svg>
