<?xml version="1.0" encoding="utf-8"?>
<!-- Generator: Adobe Illustrator 23.0.1, SVG Export Plug-In . SVG Version: 6.00 Build 0)  -->
<svg version="1.1" id="Calque_1" xmlns="http://www.w3.org/2000/svg" xmlns:xlink="http://www.w3.org/1999/xlink" x="0px" y="0px"
	 viewBox="0 0 680.7 208.7" style="enable-background:new 0 0 680.7 208.7;" xml:space="preserve">
<style type="text/css">
	.st0{fill:#860CE6;}
	.st1{enable-background:new    ;}
	.st2{fill:#FFFFFF;}
	.st3{fill:none;}
	.st4{fill:#860CE6;stroke:#860CE6;stroke-miterlimit:10;}
</style>
<path class="st0" d="M7,25.9c0.5-5.6-0.9-10.1,13.7-14.6c5.7-1.7,14.6-3.4,14.6-3.4s11.8-1.1,18.9-1.1c11.8,0,10.9,0,25.5-1.1
	s9.4-0.6,29.3-0.6s8,0,32.1,0s9,0,27.8,0.6s17.5,0.6,35.9,0.6s25.5,0,37.3,0s0.5,0,19.3,0s13.2,0,30.2,0s26.9,0,33.5,0s26,0,35.4,0
	s24.5,0,27.8,0s30.2,0,33.5,0s27.8,0,30.7,0c2.4,0,26.4,0,27.8,0s20.8,0,22.2,0c1.4,0,38.2,0,40.1,0s42.5-0.6,43.9-0.6
	s10.9,0,14.6,0s12.7,0,16,0.6s20.3,1.1,23.6,1.1s7.1,0.6,9.9,0.6c2.8,0,3.8,0,5.7,0.6s2.4,0,4.7,0.6s3.3,1.1,4.2,1.1
	c0.9,0.6,0.9,0.6,2.4,1.1c0.9,1.1,0.9,0.6,2.4,1.7s3.3,4.5,3.3,5c0.5,0.6,0-0.6,1.9,3.9s2.4,4.5,2.4,5.6c1.4,11.8-1.4,73.9-1.4,74.5
	s-0.5,9.5-0.5,9.5c0,0.6,0,6.2,0,6.2v8.4c0,0,0,10.6,0,11.2c0,0.6,0.5,11.2,0.5,11.2s0.5,11.8,0.5,12.3c0,0.6,0,20.2,0,20.2
	s0.9,7.3,0.9,7.8c0,0,0.5,1.1,0,2.2c-0.5,1.1-0.5,1.7-1.4,2.8c-1.4,1.1-1.4,1.7-3.8,2.2c-1.9,0.6-2.4,1.1-4.2,1.7
	c-1.9,0.6-2.8,1.1-4.7,1.1s-3.3,1.1-4.7,1.1s-2.8,0.6-5.7,1.1c-2.8,0.6-1.9,0.6-4.7,1.1c-2.4,0.6-4.7,0.6-7.1,1.1
	c-2.4,0-6.1,0.6-8,1.1c-2.4,0-7.5,0.6-9.4,0.6c-1.4,0-9,0.6-9.9,0.6s-10.9,0.6-12.7,0.6c-1.9,0-4.2,0-5.7,0c-1.4,0-7.1,0-8,0
	s-9.4,0-10.4,0c-1.4,0-11.3,0-20.3,0c-9.4,0-16.5,0-21.2-0.6c-4.7,0-21.7-0.6-23.1-0.6c-1.4,0-22.2-0.6-23.6-0.6s-22.6,0-24.5,0
	s-18.9,0-20.8,0s-16.5,0-18.4,0s-17.9,0-18.9,0c-0.9,0-22.6,0-23.6,0c-0.9,0-16,0-15.6,0s-24.1,0-22.2,0s-21.2,0-19.8,0
	c1.4,0-30.2,0-28.3,0c2.4,0-36.8,0.6-34.9,0.6s-34,0-33,0c0.9,0-30.2,0-29.3,0s-30.2,0-28.3,0s-28.3-0.6-25.5,0
	c3.3,0-29.3-0.6-27.4-0.6s-11.3-0.6-9.9,0c1.4,0-12.3-0.6-11.3-0.6s-9.4-0.6-8.5-0.6s-10.9-0.6-9.9-0.6c0.9,0-10.9-0.6-9-0.6
	s-11.3-1.1-9-0.6c2.4,0-7.5-0.6-6.1-0.6s-4.7-0.6-3.8-0.6s-7.5-1.1-5.7-0.6c1.4,0-7.1-1.1-6.6-1.1s-6.6-1.1-4.7-1.1
	c1.9,0-6.1-1.1-5.2-1.1s-4.7-1.1-3.3-1.1c1.4,0.6-4.7-1.7-3.8-1.1c1.4,0.6-0.9-0.6-1.4-1.1c-0.9-0.6-2.4-1.7-3.8-2.8
	c-1.4-1.7-3.3-1.7-4.2-3.4s-1.9-1.7-2.8-3.4c0-0.6-1.9-47.6-0.9-54.9c0.9-7.3-0.9-45.4-0.9-51C7.5,65.6,7,25.9,7,25.9z"/>
<g>
	<path d="M448,369.7c0.1,0.2,0.2,0.4,0.4,0.7c0.5,1,1,2.1,1.4,3.2c0.3,0.9,0.6,1.9,0.9,2.9c0.1,0.6,0.3,1.2,0.4,1.8
		c0.1,1,0.2,2,0.2,2.9c0,1-0.1,2-0.3,2.9c-0.2,1-0.5,2-0.9,2.9c-0.5,1.1-1.1,2-2,3c-0.6,0.7-1.3,1.3-2.1,1.9
		c-0.6,0.4-1.2,0.8-1.8,1.1c-0.6,0.3-1.3,0.6-1.9,0.9c-0.7,0.3-1.3,0.5-2,0.8c-1.3,0.5-2.6,0.8-3.9,1c-1.6,0.3-3.1,0.3-4.6,0.2
		c-1.4-0.1-2.8-0.5-4-1.1c-1.1-0.5-2.2-1.3-3.2-2.2c-0.8-0.8-1.6-1.8-2.3-3c-0.3-0.5-0.6-1.1-0.8-1.7c-0.8-1.8-1.4-3.8-1.7-5.7
		c-0.3-1.7-0.4-3.4-0.3-5s0.5-3.2,1.1-4.6c0.5-1.1,1.1-2.1,2-3c0.8-0.8,1.7-1.6,2.8-2.2c0.5-0.3,1-0.5,1.5-0.7
		c0.9-0.4,1.8-0.7,2.8-1c0.9-0.3,1.9-0.6,2.8-0.7c1.2-0.2,2.4-0.4,3.6-0.4s2.3,0,3.4,0.2c0.8,0.1,1.6,0.3,2.3,0.6
		c0.9,0.3,1.8,0.8,2.7,1.4c0.7,0.5,1.4,1.1,2.1,1.7c0.3,0.4,0.7,0.8,1,1.2c4.1,5.2,11.4-2.1,7.3-7.3c-8.5-10.9-24.7-9.6-35.7-3.4
		c-12.8,7.3-12.5,26-5.3,37.5c7.9,12.6,23.2,12.4,35.3,5.9c14.3-7.7,14.8-24.6,7.6-37.4C453.6,358.7,444.7,363.9,448,369.7
		L448,369.7z"/>
</g>
<g>
	<path d="M478.3,358.3C496.9,400,458.1,437,432.5,466c2.4,0,4.9,0,7.3,0c-24.5-25.8-55.7-59.4-50.7-98.1
		c5.6-43.4,77.6-54.4,91.5-10.2c2,6.3,12,3.6,10-2.7c-14.5-46.5-72.2-43.5-100.7-12.7c-37.7,40.7,14.8,101.8,42.7,131.1
		c1.8,1.9,5.5,2.1,7.3,0c30.3-34.4,69.2-71.5,47.4-120.3C484.5,347.1,475.6,352.3,478.3,358.3L478.3,358.3z"/>
</g>
<g class="st1">
	<path class="st2" d="M221.1,79c-0.4,0-0.7,0.7-1.1,2.1c-0.4,1.4-1.1,3.5-1.8,6s-1.4,5.3-2.5,8.1c-0.7,3.2-1.8,6-2.8,9.2
		c-1.1,3.2-2.1,5.6-3.2,8.5c-1.1,2.5-2.1,4.6-3.2,6.3c-1.1,1.4-1.8,2.5-2.8,2.5c-0.7,0-1.8-0.7-2.5-2.8c-1.1-1.4-1.8-3.2-3.2-5.6
		c-1.4-2.5-2.5-4.9-3.5-7.8c-1.1-2.8-2.5-5.6-3.9-8.5c-1.4-2.8-2.8-5.6-4.2-8.1s-2.8-4.9-4.2-6.7c-1.4-1.8-2.8-3.2-3.9-3.9
		c0,4.6,0.4,9.2,0.7,14.4c0.4,5.3,1.1,10.6,1.8,15.9s1.1,10.6,1.8,15.9s1.1,10.2,1.1,14.8c0.4,0.7,0.4,1.1,0,1.8s-0.7,1.1-1.1,1.4
		c-0.4,0.4-1.1,0.4-1.8,0s-1.4-0.7-2.1-1.8c-0.7-5.6-1.4-11.3-1.8-17.3c-0.4-6-0.7-11.6-1.1-17.6s-0.7-12-1.1-17.6
		c-0.4-5.6-1.1-11.6-2.1-17.3c0-1.1,0-1.8,0.7-2.1c0.4-0.4,1.1-0.4,1.8-0.4c2.5,0.7,4.9,2.1,6.7,3.9c2.1,2.1,3.9,4.2,5.6,6.7
		c1.8,2.5,3.2,5.6,4.6,8.5c1.4,3.2,2.8,6.3,4.2,9.2c1.4,3.2,2.8,6,4.2,8.8s2.8,5.3,4.6,7.4c0.4,0,0.4,0,0.7-0.4
		c0.4-0.4,0.4-0.7,0.7-1.8c0.4-0.7,0.7-2.1,1.4-3.9s1.4-4.2,2.5-7.4c1.1-3.2,2.5-7.4,3.9-12.3s3.5-10.9,5.6-18
		c0-0.4,0.4-0.7,0.7-1.1c0.4-0.4,1.1-0.4,1.4-0.4c0.4,0,1.1,0.4,1.4,0.7c0.4,0.4,0.7,1.1,1.1,1.8c0.7,5.3,1.1,10.6,1.4,16.6
		c0.4,6,1.1,11.6,1.4,17.6c0.7,6,1.1,12.3,2.1,18.3c0.7,6.3,1.8,12.3,2.8,18.3c0,0.7-0.4,1.4-0.7,1.8c-0.4,0.4-0.7,0.4-1.4,0.4
		s-1.1-0.4-1.8-0.7s-1.4-0.7-1.8-1.1L221.1,79z"/>
	<path class="st2" d="M235.9,72.3c0-0.7,0.4-1.1,0.7-1.4c0.4-0.4,1.1-0.4,1.8-0.4c1.4,0,2.1,0.4,2.5,1.1s0.4,1.8,0.4,2.8
		c-0.4,0.7-0.7,1.1-1.4,1.4c-0.7,0.4-1.1,0.4-1.8,0s-1.1-0.7-1.4-1.1C236.3,74.4,235.9,73.7,235.9,72.3z M237,89.5
		c0.4,0,0.7-0.4,1.1-0.4s1.1,0,1.4,0s0.7,0,1.1,0.4c0.4,0,0.7,0.4,1.1,1.1c0,3.5,0,7.8,0,12s0.4,8.5,0.4,13c0,4.2,0.4,8.8,0.4,13
		c0,4.2,0.4,8.1,0.4,11.6c0,0.7,0,1.4-0.7,2.1c-0.4,0.4-1.1,0.7-1.8,0.7s-1.1-0.4-1.8-0.7c-0.4-0.4-0.7-1.1-0.7-2.1L237,89.5z"/>
	<path class="st2" d="M246.5,91.3c0-0.7,0.4-1.1,0.7-1.4c0.4-0.4,0.7-0.7,1.4-0.7c0.4,0,1.1,0,1.4,0c0.4,0.4,1.1,0.4,1.4,1.1
		l-0.4,33.8c1.1-4.2,2.1-8.1,2.8-12s2.1-7.8,3.2-10.9c1.4-3.2,2.8-6,4.9-8.1s4.6-3.2,7.8-3.5c1.8,0,3.2,0.4,4.6,1.4
		c1.4,1.1,2.5,2.8,3.5,4.9c1.1,2.1,1.8,4.6,2.5,7.4s1.1,5.6,1.4,8.8c0.4,3.2,0.7,6,0.7,9.2s0.4,6,0.4,8.5c0,2.5,0,4.9,0,6.7
		c0,2.1,0,3.5,0,4.2c-0.4,1.1-1.1,1.8-2.1,1.8c-1.1,0.4-1.8,0-2.8-1.1c0-1.1,0-2.8,0-5.6c0-2.5,0-5.6,0-9.2c0-3.5-0.4-7-0.4-10.6
		c-0.4-3.5-0.7-7-1.4-10.2c-0.7-3.2-1.4-5.6-2.5-7.8c-1.1-2.1-2.5-3.2-3.9-3.5c-1.4-0.4-2.8,0.7-4.2,2.5s-2.5,4.2-3.9,7
		c-1.1,2.8-2.5,6-3.5,9.9c-1.1,3.5-2.1,7-2.8,10.6c-0.7,3.5-1.4,6.7-2.1,9.5s-1.1,5.3-1.1,6.7c0,0.4-0.4,0.7-1.1,1.1
		c-0.4,0.4-1.1,0.4-1.8,0.4s-1.1,0-1.8-0.4s-1.1-0.7-1.4-1.4L246.5,91.3z"/>
	<path class="st2" d="M311,125.5c-0.7,1.4-1.4,3.2-2.8,4.9c-1.4,1.8-2.8,3.5-4.2,5.3c-1.8,1.8-3.5,3.2-5.3,4.2
		c-2.1,1.1-3.9,1.8-6,1.8c-1.1,0-1.8,0-2.1-0.4c-0.7-0.4-1.1-0.7-1.4-1.1c-0.4-0.4-0.7-1.1-1.1-1.4s-0.7-1.4-1.4-2.1
		c-0.4-2.8-0.7-6-0.7-9.5s0.4-7,0.7-10.6c0.7-3.5,1.4-6.7,2.8-10.2c1.1-3.2,2.8-6,4.6-8.1c2.1-2.1,4.2-3.9,7-4.9
		c2.8-1.1,6-1.1,9.5-0.4c0.4-3.5,0.4-7,0-10.6c-0.4-3.5-0.4-7.4-0.7-11.3c0-0.7,0.4-1.1,0.7-1.1c0.4-0.4,1.1-0.4,1.8-0.4
		s1.4,0,1.8,0s1.1,0,1.1,0.4c0,4.9,0,9.9,0,14.1s0,8.1,0,12s0,7.4,0,10.9s0,7,0,10.9c0,3.5,0,7.4,0,11.6s0,8.5,0,13.4
		c0.4,1.1,0.4,1.8-0.4,2.1s-1.1,1.1-1.4,1.1c-0.7,0-1.4,0-1.8-0.4c-0.7-0.4-1.1-1.1-1.1-2.1L311,125.5z M307.1,98
		c-2.1-0.4-4.2,0.4-6,1.8s-3.5,3.5-4.9,6s-2.8,5.3-3.5,8.8c-1.1,3.2-1.4,6.3-1.8,9.2c-0.4,2.8,0,5.6,0.4,8.1s1.4,3.9,2.8,4.9
		c1.4,0,2.8-0.4,4.2-1.4c1.4-1.1,2.5-2.1,3.9-3.9c1.1-1.4,2.5-3.2,3.5-5.3c1.1-1.8,2.1-3.9,2.8-5.6c0.7-1.8,1.4-3.5,1.8-4.9
		s0.7-2.8,0.7-3.5s0-1.8,0-3.2c0-1.4,0-3.2-0.4-4.9s-0.7-3.2-1.1-4.2C308.5,98.7,307.8,98,307.1,98z"/>
	<path class="st2" d="M367.7,101.5L360,104c-0.7,0-1.1-0.4-1.4-1.1c-0.4-0.4-0.7-1.1-1.1-1.4c0-0.4-0.4-1.1,0-1.4
		c0-0.4,0.4-0.7,0.7-1.1l9.5-3.5v-24c0-0.7,0.7-1.4,1.1-1.8c0.7-0.4,1.1-0.4,1.8-0.4c0.7,0,1.1,0.4,1.8,0.7c0.4,0.4,0.7,0.7,1.1,1.4
		c0,1.8-0.4,3.5-0.4,5.6s0,3.9,0,6s0,3.9,0,5.6c0,1.8,0,3.5,0.4,4.9l13-5.3c0.7-0.4,1.4,0,1.8,0.4s0.7,0.7,1.1,1.4
		c0,0.7,0,1.1,0,1.8c0,0.7-0.7,1.1-1.1,1.1l-14.4,6.7c0,0.7,0,1.8,0,3.9s0,4.6,0,7.4s0,6,0,9.2s0,6.3,0,9.2c0,2.8,0,5.3,0,7.4
		s0,3.5,0,3.9c0,1.8-0.7,2.8-1.8,2.8c-1.1,0-2.1-0.4-3.2-1.4L367.7,101.5z"/>
	<path class="st2" d="M417.4,140.6c0-1.8,0.4-4.2,0.4-7.4c0-2.8,0-6,0-9.5c0-3.2,0-6.7-0.4-10.2s-0.4-6.3-0.7-9.2s-0.7-4.9-1.4-6.7
		c-0.7-1.8-1.4-2.8-2.1-2.8c-1.8-0.7-3.5-0.4-5.3,0.4c-1.8,0.7-3.2,2.1-4.6,4.2c-1.4,1.8-2.8,4.2-4.2,6.7c-1.4,2.5-2.5,5.3-3.5,8.5
		c-1.1,3.2-2.1,6-2.8,8.8c-0.7,2.8-1.4,5.6-2.1,8.1c-0.4,2.5-1.1,4.6-1.1,6.3c0,1.8-0.4,2.8-0.4,3.5c-0.4,0-1.1,0-1.4,0.4
		c-0.4,0.4-1.1,0.4-1.8,0.4s-1.1,0-1.4,0s-0.7-0.4-0.7-1.1l-1.4-69.8c0-0.4,0.4-0.7,0.7-1.1c0.4-0.4,1.1-0.4,1.4,0
		c0.7,0,1.1,0.4,1.8,0.4c0.4,0.4,0.7,0.4,1.1,0.7l0.7,53.2c0.4-1.1,0.7-2.5,1.4-4.6c0.7-2.1,1.1-4.6,2.1-7c0.7-2.8,1.8-5.3,3.2-8.1
		c1.4-2.8,2.8-5.3,4.6-7.4c1.8-2.1,3.9-3.9,6.3-5.3c2.5-1.4,5.3-1.8,8.5-1.4c1.1,0.7,1.8,1.4,2.8,2.1c0.7,0.7,1.4,2.1,2.1,3.5
		s1.1,3.5,1.8,6c0.4,2.5,1.1,5.3,1.1,8.8c0.4,3.5,0.7,7.8,0.7,12.7c0.4,4.9,0.4,10.9,0.4,17.6c0,0.4-0.4,0.7-1.1,1.1
		c-0.4,0.4-1.1,0.7-1.8,0.7s-1.1,0-1.8-0.4C418.1,142.4,417.8,141.7,417.4,140.6z"/>
	<path class="st2" d="M429.4,119.1c-0.4,0.4-1.1,0.4-2.1,0.4s-1.8-0.4-2.8-0.7c-0.7-0.4-1.4-0.7-1.8-1.4c-0.4-0.7,0-1.4,1.1-2.1
		c0.4-0.4,0.7-0.7,1.4-0.7c0.4,0,1.1-0.4,1.4-0.4s0.7-0.4,1.1-0.7c0.4-0.4,0.4-0.7,0.7-1.4c0-2.5,0.4-5.3,0.7-7.8
		c0.4-2.5,1.1-4.9,2.1-7c1.1-2.1,2.5-3.9,4.2-4.9c1.8-1.4,4.2-1.8,7.4-1.4c1.1,0,2.5,0.4,3.9,0.7c1.4,0.4,2.8,1.4,4.2,2.1
		c1.4,0.7,2.5,1.8,3.5,3.2c1.1,1.1,1.4,2.5,1.8,3.9c0.4,0.7,0,1.4-0.7,2.1s-2.1,1.8-3.5,2.8c-1.4,1.1-3.2,2.1-5.3,3.2
		c-1.8,1.1-3.9,2.1-5.6,3.2c-1.8,1.1-3.5,1.8-4.6,2.5c-1.4,0.7-2.1,1.4-2.5,1.4c0.4,2.1,0.7,4.6,1.1,7c0.4,2.5,1.1,4.6,1.8,6.7
		c0.7,2.1,1.8,3.9,2.8,4.9c1.1,1.4,2.5,2.1,4.2,2.1c2.5,0,4.6-0.4,6.3-1.1c1.8-1.1,3.2-2.1,4.6-3.5s2.1-3.2,2.8-4.9
		c0.7-1.8,1.4-3.5,1.8-4.9s0.7-2.8,0.7-3.9s0.4-1.8,0.4-1.8c0.7-0.4,1.4-0.4,2.1,0s1.4,1.1,1.4,2.5c0,2.1-0.4,4.6-1.4,7.4
		c-1.1,2.8-2.5,5.3-4.2,7.8c-1.8,2.5-3.9,4.2-6.3,5.6c-2.5,1.4-4.9,1.8-7.8,1.4c-2.8,0-5.3-1.1-6.7-2.5s-3.2-3.5-3.9-6
		c-1.1-2.1-1.8-4.6-2.1-7.4C430.1,123.4,429.7,121.3,429.4,119.1z M451.6,100.8c-1.8-2.5-3.5-4.2-5.6-4.6c-1.8-0.7-3.9-0.7-5.6-0.7
		c-1.1,0-2.1,0.7-3.2,1.8s-1.8,2.1-2.1,3.5c-0.7,1.4-1.1,3.2-1.1,4.9c-0.4,1.8-0.4,3.5,0,5.6L451.6,100.8z"/>
	<path class="st2" d="M557.7,79c-0.4,0-0.7,0.7-1.1,2.1c-0.4,1.4-1.1,3.5-1.8,6s-1.4,5.3-2.5,8.1c-0.7,3.2-1.8,6-2.8,9.2
		c-1.1,3.2-2.1,5.6-3.2,8.5c-1.1,2.5-2.1,4.6-3.2,6.3c-1.1,1.4-1.8,2.5-2.8,2.5c-1.1,0-1.8-0.7-2.5-2.8c-1.1-1.4-1.8-3.2-3.2-5.6
		c-1.1-2.5-2.5-4.9-3.5-7.8c-1.4-2.8-2.5-5.6-3.9-8.5c-1.4-2.8-2.8-5.6-4.2-8.1s-2.8-4.9-4.2-6.7c-1.4-1.8-2.8-3.2-3.9-3.9
		c0,4.6,0.4,9.2,0.7,14.4c0.4,5.3,1.1,10.6,1.8,15.9s1.1,10.6,1.8,15.9c0.4,5.3,0.7,10.2,0.7,14.4c0.4,0.7,0.4,1.1,0,1.8
		s-0.7,1.1-1.1,1.4s-1.1,0.4-1.8,0s-1.4-0.7-1.8-1.4c-0.7-5.6-1.4-11.3-1.8-17.3c-0.4-6-0.7-11.6-1.1-17.6s-0.7-12-1.1-17.6
		c-0.4-6-1.1-11.6-2.1-17.3c0-1.1,0-1.8,0.7-2.1c0.4-0.4,1.1-0.4,1.8-0.4c2.5,0.7,4.9,2.1,6.7,3.9s3.9,4.2,5.6,6.7
		c1.8,2.5,3.2,5.6,4.6,8.5c1.4,3.2,2.8,6.3,4.2,9.2c1.4,3.2,2.8,6,4.2,8.8s2.8,5.3,4.6,7.4c0.4,0,0.4,0,0.7-0.4s0.4-0.7,0.7-1.8
		c0.4-0.7,0.7-2.1,1.4-3.9s1.4-4.2,2.5-7.4c1.1-3.2,2.5-7.4,3.9-12.3s3.5-10.9,5.6-18c0-0.4,0.4-0.7,0.7-1.1s1.1-0.4,1.4-0.4
		s1.1,0.4,1.4,0.7c0.4,0.4,0.7,1.1,1.1,1.8c0.7,5.3,1.1,10.6,1.4,16.6c0.4,5.6,1.1,11.6,1.4,17.6s1.1,12.3,2.1,18.3
		c0.7,6.3,1.8,12.3,2.8,18.3c0,0.7-0.4,1.4-0.7,1.8s-0.7,0.4-1.4,0.4s-1.1-0.4-1.8-0.7s-1.4-0.7-1.8-1.1L557.7,79z"/>
	<path class="st2" d="M601.7,141c-0.7-1.1-1.4-2.8-1.4-4.6c-0.4-1.8-0.4-3.9-0.4-6s0-4.2,0-6.3c0-2.1,0-3.9-0.4-5.3
		c-2.8,6-5.3,10.2-7.4,13.7c-2.5,3.2-4.6,5.6-6.3,7c-2.1,1.4-3.9,2.1-5.3,1.8c-1.4-0.4-2.8-0.7-3.9-1.8s-2.1-2.1-2.5-3.5
		c-0.7-1.4-1.1-2.8-1.1-4.2c-0.4-2.1-0.4-4.6,0-7.8c0.4-3.2,1.1-6,2.1-9.5c1.1-3.5,2.1-6.3,3.5-9.5s3.2-5.6,4.9-8.1
		c1.8-2.5,3.9-3.9,6-4.9c2.1-1.1,4.2-1.4,6.7-0.7c1.1,0,2.1,0,2.8,0c0.7,0.4,1.4,0.7,1.8,1.1c0.4,0.7,0.7,1.4,1.1,2.5
		c0.4,1.1,0.4,2.5,0.4,4.2c0,5.6,0,10.2,0.4,14.1s1.1,7.4,1.4,10.2c0.4,2.8,1.1,5.6,1.8,8.1s0.7,4.9,1.1,7.4c0,1.1-0.4,1.8-0.7,2.1
		s-1.1,0.7-1.4,1.1c-0.7,0-1.1,0-1.4,0C602.1,141.7,601.7,141.3,601.7,141z M596.8,98c-1.4-1.8-2.8-2.5-4.6-2.1s-3.2,1.4-4.6,2.8
		c-1.4,1.8-3.2,3.9-4.6,6.7c-1.4,2.8-2.5,5.6-3.5,8.5c-1.1,2.8-1.8,6-2.1,9.2c-0.4,3.2-0.7,5.6-0.4,8.1c0.7,2.5,1.8,4.2,2.8,4.6
		c1.1,0.4,2.5,0.4,3.5-0.7c1.4-0.7,2.5-2.1,3.9-4.2c1.4-1.8,2.8-3.9,3.9-6.3s2.5-4.6,3.5-6.7c1.1-2.1,1.8-4.2,2.5-5.6L596.8,98z"/>
	<path class="st2" d="M609.8,166.7c0.4-7,0.7-12.7,1.1-17.6c0.4-4.6,0.4-8.5,0.4-12c0-3.2,0-6.3,0-8.8s0-5.3-0.4-8.1
		c0-2.8-0.4-6-0.4-9.9c0-3.5-0.4-8.5-0.4-14.1c0-0.7,0.4-1.1,0.7-1.8c0.4-0.4,0.7-0.7,1.1-1.1s1.1-0.4,1.4,0
		c0.4,0.4,1.1,0.7,1.4,1.4l-0.4,10.9c1.8-2.5,4.2-4.6,6.3-6.7c2.5-2.1,4.9-3.9,7.4-4.9c2.5-1.4,4.9-2.1,7-2.8c2.5-0.7,4.2-0.7,6,0
		c1.8,0.4,3.2,1.4,3.9,3.2c1.1,1.4,1.4,3.9,1.1,6.7c-0.4,2.5-1.1,5.3-2.1,8.1c-1.4,2.8-2.8,5.6-4.9,8.5c-1.8,2.8-3.9,5.6-6.3,8.1
		c-2.1,2.5-4.6,4.9-6.7,6.7c-2.1,2.1-4.2,3.5-6,4.9c-1.8,1.1-3.2,1.8-4.2,1.8c0,0.7,0,1.8-0.4,3.5c0,1.4-0.4,3.2-0.4,4.9
		s-0.4,3.9-0.4,5.6s-0.4,3.9-0.4,5.6c0,1.8-0.4,3.5-0.4,4.9s0,2.5,0,3.2c-0.4,0.4-0.7,0.7-1.1,0.7c-0.4,0.4-0.7,0.4-1.4,0.4
		c-0.4,0-1.1,0-1.4-0.4C610.5,168.1,610.2,167.8,609.8,166.7z M616.2,134.6c1.8-0.7,4.2-2.1,6.7-4.6c2.5-2.1,5.3-4.9,7.8-8.1
		s4.9-6.7,7-10.2s3.5-7.4,4.6-11.3c-0.4-1.8-1.1-2.8-2.1-3.5c-1.1-0.7-2.5-0.7-4.2-0.4c-1.8,0.4-3.5,1.1-5.3,2.1
		c-1.8,1.1-3.9,2.5-5.6,3.9c-1.8,1.4-3.5,3.2-4.9,4.9s-2.8,3.5-3.5,5.3v21.9H616.2z"/>
</g>
<path d="M111.7,288.9"/>
<g>
	<g>
		<g>
			<path class="st2" d="M91.3,180.8l-2.3-0.5l-1.8-1l-1.3-1.2l-1.7-2l-2.7-3.2l-3.3-3.7l-2.7-3.3l-3.3-4l-3.4-4.2l-4.1-5.5l-4.4-6.1
				l-2.5-3.7l-2.9-4.8l-2.6-4.2l-2.8-5.3l-1.7-3.4l-1.9-3.9l-1.4-3.3l-1.3-3.5l-1.5-4.2l-0.9-3l-0.9-4.2l-0.7-4.1l-0.4-3.4L38.5,91
				v-3l0.9-8.1l0.9-3.4l0.9-2.5l1-2.9l1.1-2.3l1.1-1.8l1.4-2.5l1.7-2.5l1.5-2l1.6-1.9l2-2.1l2.2-2.2l2.5-2.2l2.3-1.6l1.9-1.4
				l1.5-1.1l2.4-1.4l2.7-1.6l3.2-1.6l3.2-1.3l3.1-1.2l3.2-1l3-0.7l2.5-0.5l2.6-0.5l2.7-0.3l2.7-0.3H99l3.1,0.3l3.4,0.5l6.2,1.5
				l4.6,1.7l4.2,2.2l3.3,2.1l3,2.2l2.6,2.5l1.8,2.1l1.8,2.2l1.5,2.3l1.9,3l1.8,3.4l1.7,3.9l0.8,2.1l0.5,1.4l0.2,1.1l0.2,1.1v0.9v0.1
				c0,0.2-0.1,1.1-0.4,1.9l-0.1,0.2c-0.1,0.3-0.2,0.5-0.3,0.7c0.1,0.3,0.2,0.6,0.3,0.8l0.1,0.2l0.6,2.2l0.5,2.3l0.6,3.3l0.5,3.2
				l0.4,4.4v3.7l-0.2,3.5l-0.5,4.7l-0.9,4.7L141,114l-1.8,5.3l-2,5l-3,6.3l-2.4,4.1l-3.8,6.1l-2.4,3.6l-1.3,1.8l-3.5,4.6l-4.5,5.7
				l-7.1,8.5l-12.6,14.8L94,181h-2.7V180.8z"/>
			<path class="st0" d="M98.9,40l2.9,0.3l3.2,0.5l5.9,1.4l4.3,1.6l3.9,2l3.1,2l2.7,2.1l2.3,2.2l1.7,2l1.6,2.1l1.4,2.2l1.8,2.9
				l1.7,3.2L137,68l0.8,2l0.4,1.3l0.2,0.9l0.1,0.8v0.7c0,0,0,0.6-0.2,1s-0.2,0.6-0.4,0.9c-0.1,0.1-0.2,0.3-0.3,0.7
				c-0.1,0.4,0.7,2.2,0.7,2.2l0.5,2l0.5,2.1l0.6,3.3l0.5,3l0.2,1.9l0.2,2.2v1.8v1.6l-0.2,3.3l-0.5,4.6l-0.9,4.5l-1.1,4.3l-1.7,5.1
				l-2,4.8l-2.9,6.2l-2.3,4l-3.7,6l-2.3,3.5l-1.3,1.8l-3.4,4.5l-4.5,5.6l-7,8.4c0,0-11.7,14-12.1,14.3s-0.9,0.6-1.4,0.7
				s-1,0.1-1.8,0s-1.2-0.3-1.5-0.4c0,0-0.8-0.4-1.1-0.6s-0.9-0.9-0.9-0.9l-1.6-1.9l-2.7-3.2l-3.3-3.7L78,164l-3.3-4l-3.4-4.1
				l-4.1-5.5l-4.4-6.1l-2.4-3.6l-2.9-4.8l-2.6-4.2l-2.7-5.1l-1.7-3.4l-1.8-3.8l-1.3-3.3l-1.3-3.4l-1.4-4.1l-0.9-2.9l-0.9-4.1
				l-0.7-3.9l-0.4-3.3L41.5,91v-2.8l0.3-2.4l0.3-2.6l0.3-2.7l0.8-3.1L44,75l0.9-2.7l1-2l1-1.7l1.4-2.4l1.6-2.3l1.6-2l1.4-1.7l1.9-2
				l2.1-2.1l2.3-2.1l2.2-1.5l2-1.4l1.4-1l2.3-1.4l2.5-1.5l3-1.5l3.1-1.3l3-1.2l3-1l2.8-0.7L87,41l2.4-0.5l2.6-0.3l2.5-0.2h2.2
				L98.9,40 M99.1,34h-0.3h-2.3h-2.2H94h-0.3l-2.5,0.2h-0.1H91l-2.6,0.3h-0.2H88L85.6,35h-0.1h-0.1l-2.5,0.5h-0.1h-0.1l-2.8,0.7
				l-0.2,0.1l-0.2,0.1l-3,1l-0.2,0.1l-0.2,0.1l-3,1.2l0,0l0,0L70,40.1l0,0.1l-0.2,0.1l-3,1.5l-0.2,0.1L66.4,42l-2.5,1.5l-2.3,1.4
				L61.4,45l-0.2,0.1l-1.4,1l0,0l0,0l-1.9,1.4L55.8,49l-0.3,0.2l-0.2,0.2L53,51.5l-0.1,0.1l-0.1,0.1l-2.1,2.1l-0.1,0.1L50.4,54
				l-1.9,2l-0.1,0.2l-0.1,0.2L46.8,58v0.1v0.1l-1.6,2L45,60.3l-0.1,0.2l-1.6,2.3L43.2,63l-0.1,0.2l-1.4,2.4l-1,1.6l-0.1,0.2
				l-0.1,0.2l-1,2L39.3,70l-0.1,0.4l-0.9,2.7l-0.8,2.4l-0.1,0.2l-0.1,0.2L36.6,79l-0.1,0.4v0.4l-0.3,2.7l-0.3,2.6l-0.3,2.4v0.3v0.3
				V91v0.2v0.2l0.2,3.4V95v0.2l0.4,3.3v0.2v0.2l0.7,3.9v0.1v0.1l0.9,4.1l0.1,0.2l0.1,0.2l0.9,2.9v0.1v0.1l1.4,4.1l0,0l0,0l1.3,3.4
				v0.1v0.1l1.3,3.3l0.1,0.1l0.1,0.1l1.8,3.8l1.7,3.5l0.1,0.1l0.1,0.1l2.7,5.1l0.1,0.2l0.1,0.2l2.6,4.2l2.9,4.7l0.1,0.1l0.1,0.1
				l2.4,3.6l0.1,0.1l0.1,0.1l4.4,6.1l0,0l0,0l4.1,5.5l0.1,0.1l0.1,0.1l3.4,4.1l3.3,4l2.6,3.3l0.1,0.1l0.1,0.1l3.2,3.7l2.7,3.2
				l1.6,1.9l0.2,0.2l0.2,0.2l0.9,0.9l0.6,0.5L86,182l1.1,0.6l0.7,0.4l0.8,0.2l1.5,0.4l0.7,0.2h0.7h1.8h1.4l1.2-0.6l1.4-0.7l1.1-0.6
				l0.8-1l12.1-14.3l0,0l0,0l7-8.4l0,0l0,0l4.5-5.6v-0.1v-0.1l3.4-4.5l0,0l0,0l1.3-1.8l0.1-0.1l0.1-0.1l2.3-3.5l0.1-0.1l0.1-0.1
				l3.7-6v-0.1V136l2.3-4l0.1-0.2l0.1-0.2l2.9-6.2l0.1-0.2l0.1-0.2l2-4.8l0.1-0.2l0.1-0.2l1.7-5.1l0.1-0.2l0.1-0.2l1.1-4.3v-0.2
				v-0.2l0.9-4.5l0.1-0.3v-0.3l0.5-4.6v-0.1v-0.1l0.2-3.3v-0.2V96v-1.6v-1.8v-0.3V92l-0.2-2.2l-0.2-1.9v-0.2v-0.2l-0.5-3v-0.1v-0.1
				l-0.6-3.3v-0.1v-0.1l-0.5-2.1v-0.1v-0.1l-0.5-2l-0.1-0.4l0,0c0.4-1.1,0.5-2.1,0.5-2.6v-0.1v-0.1v-0.7v-0.4l-0.1-0.4l-0.1-0.8
				v-0.2v-0.2L144,70l-0.1-0.4l-0.1-0.3l-0.4-1.3v-0.1v-0.1l-0.8-2v-0.1v-0.1l-1.6-3.7l-0.1-0.2l-0.1-0.2l-1.7-3.2l-0.1-0.2
				l-0.1-0.1l-1.8-2.9V55v-0.1l-1.4-2.2l-0.2-0.2l-0.2-0.2l-1.6-2.1l-0.1-0.1l-0.1-0.1l-1.7-2l-0.2-0.2l-0.2-0.2l-2.3-2.2l-0.3-0.3
				l-0.3-0.2l-2.7-2.1l-0.2-0.1l-0.2-0.1l-3.1-2l-0.2-0.1l-0.2-0.1l-3.9-2l-0.3-0.2l-0.3-0.1l-4.3-1.6l-0.3-0.1l-0.3-0.1l-5.9-1.4
				l-0.3-0.1H106l-3.2-0.5h-0.2h-0.2l-3-0.3H99.1L99.1,34z"/>
		</g>
	</g>
	<rect x="13.8" y="81.5" class="st3" width="155.4" height="61.4"/>
	<g class="st1">
		<path class="st4" d="M83.8,106c0-2.1,0.5-3.9,1.5-5.6c1-1.7,2.2-3.2,3.6-4.8s3-3,4.7-4.4c1.7-1.4,3.3-2.9,4.7-4.4
			c1.4-1.5,2.6-3.1,3.6-4.8c1-1.7,1.5-3.6,1.5-5.6c0-1.2-0.3-2.1-0.9-2.6c-0.6-0.6-1.4-1-2.3-1.2c-0.9-0.2-1.9-0.3-3-0.3
			c-1.1,0-2,0-2.9,0c-1.6,0-3.2,0.3-4.6,1c-1.5,0.6-2.9,1.3-4.2,2.1c-1.3,0.8-2.7,1.4-4,2.1c-1.3,0.6-2.7,0.9-4,0.9
			c-0.6,0-1.2-0.1-1.6-0.2c-0.5-0.2-0.7-0.8-0.7-1.8c0-0.6,0.4-1.2,1.3-1.8c0.9-0.6,2-1.2,3.3-1.8c1.3-0.6,2.8-1.1,4.5-1.6
			c1.6-0.5,3.2-1,4.8-1.3c1.6-0.4,3-0.7,4.2-0.9c1.3-0.2,2.2-0.3,2.8-0.3c1.1,0,2.4,0.1,3.7,0.3c1.3,0.2,2.5,0.5,3.6,1
			s2,1.2,2.7,2.1c0.7,0.9,1.1,2,1.1,3.5c0,2.6-0.6,5.2-1.9,7.7s-2.9,4.9-4.7,7.2s-3.8,4.4-5.8,6.3c-2,1.9-3.7,3.7-5.1,5.2
			c-0.6,0.3-1,0.8-1.2,1.4c-0.2,0.6-0.1,1.3,0,2c0.2,0.7,0.5,1.3,1.1,2c0.5,0.6,1.2,1.1,2.1,1.4c0.8,0.3,1.8,0.4,2.8,0.3
			c1.1-0.1,2.2-0.6,3.5-1.3l1.4,2.9c-1,0.8-2.3,1.4-3.7,1.6s-2.8,0.4-4.1,0.4c-1,0-1.9-0.1-2.8-0.4c-0.9-0.3-1.8-0.7-2.5-1.3
			c-0.8-0.6-1.4-1.3-1.8-2.1C84,107.9,83.8,107,83.8,106z M87.8,136.7c0-0.9,0.2-1.4,0.5-1.7c0.3-0.2,0.8-0.4,1.4-0.4
			c0.9,0,1.6,0.3,2.2,0.9c0.6,0.6,0.9,1.3,0.9,2.2c0,0.7-0.3,1.2-0.8,1.5c-0.5,0.3-1.1,0.4-1.8,0.4c-0.3,0-0.5-0.1-0.8-0.3
			c-0.3-0.2-0.5-0.5-0.8-0.8c-0.2-0.3-0.4-0.6-0.5-1C87.9,137.2,87.8,136.9,87.8,136.7z"/>
	</g>
</g>
</svg>
