<?xml version="1.0" encoding="utf-8"?>
<!-- Generator: Adobe Illustrator 23.0.1, SVG Export Plug-In . SVG Version: 6.00 Build 0)  -->
<svg version="1.1" id="Calque_1" xmlns="http://www.w3.org/2000/svg" xmlns:xlink="http://www.w3.org/1999/xlink" x="0px" y="0px"
	 viewBox="0 0 785 208.7" style="enable-background:new 0 0 785 208.7;" xml:space="preserve">
<style type="text/css">
	.st0{fill:#860CE6;}
	.st1{fill:#FFFFFF;}
</style>
<path class="st0" d="M7,25.9c0.6-5.6-1-10.1,15.7-14.6c6.5-1.7,16.7-3.4,16.7-3.4S53,6.8,61.1,6.8c13.5,0,12.5,0,29.2-1.1
	s10.8-0.6,33.6-0.6s9.2,0,36.8,0s10.3,0,31.9,0.6s20.1,0.6,41.1,0.6s29.2,0,42.7,0s0.6,0,22.1,0s15.1,0,34.6,0s30.8,0,38.4,0
	s29.8,0,40.6,0c10.8,0,28.1,0,31.9,0c3.8,0,34.6,0,38.4,0c3.8,0,31.9,0,35.2,0c2.8,0,30.3,0,31.9,0s23.8,0,25.4,0s43.8,0,46,0
	s48.7-0.6,50.3-0.6c1.6,0,12.5,0,16.7,0c4.2,0,14.6,0,18.3,0.6c3.8,0.6,23.3,1.1,27,1.1S741.4,8,744.6,8c3.2,0,4.4,0,6.5,0.6
	s2.8,0,5.4,0.6s3.8,1.1,4.8,1.1c1,0.6,1,0.6,2.8,1.1c1,1.1,1,0.6,2.8,1.7c1.7,1.1,3.8,4.5,3.8,5c0.6,0.6,0-0.6,2.2,3.9
	s2.8,4.5,2.8,5.6c1.6,11.8-1.6,73.9-1.6,74.5s-0.6,9.5-0.6,9.5c0,0.6,0,6.2,0,6.2v8.4c0,0,0,10.6,0,11.2c0,0.6,0.6,11.2,0.6,11.2
	s0.6,11.8,0.6,12.3c0,0.6,0,20.2,0,20.2s1,7.3,1,7.8c0,0,0.6,1.1,0,2.2c-0.6,1.1-0.6,1.7-1.6,2.8c-1.6,1.1-1.6,1.7-4.4,2.2
	c-2.2,0.6-2.8,1.1-4.8,1.7c-2.2,0.6-3.2,1.1-5.4,1.1s-3.8,1.1-5.4,1.1c-1.6,0-3.2,0.6-6.5,1.1c-3.2,0.6-2.2,0.6-5.4,1.1
	c-2.8,0.6-5.4,0.6-8.1,1.1c-2.8,0-7,0.6-9.2,1.1c-2.8,0-8.6,0.6-10.8,0.6c-1.6,0-10.3,0.6-11.3,0.6s-12.5,0.6-14.6,0.6
	c-2.2,0-4.8,0-6.5,0c-1.6,0-8.1,0-9.2,0s-10.8,0-11.9,0c-1.6,0-13,0-23.3,0c-10.8,0-18.9,0-24.3-0.6c-5.4,0-24.9-0.6-26.5-0.6
	s-25.4-0.6-27-0.6s-25.9,0-28.1,0s-21.7,0-23.8,0c-2.2,0-18.9,0-21.1,0s-20.5,0-21.7,0c-1,0-25.9,0-27,0c-1,0-18.3,0-17.9,0
	c0.5,0-27.6,0-25.4,0s-24.3,0-22.7,0c1.6,0-34.6,0-32.4,0c2.8,0-42.2,0.6-40,0.6s-39,0-37.8,0c1,0-34.6,0-33.6,0c1,0-34.6,0-32.4,0
	s-32.4-0.6-29.2,0c3.8,0-33.6-0.6-31.4-0.6c2.2,0-13-0.6-11.3,0c1.6,0-14.1-0.6-13-0.6s-10.8-0.6-9.7-0.6c1,0-12.5-0.6-11.3-0.6
	c1,0-12.5-0.6-10.3-0.6c2.2,0-13-1.1-10.3-0.6c2.8,0-8.6-0.6-7-0.6s-5.4-0.6-4.4-0.6s-8.6-1.1-6.5-0.6c1.6,0-8.1-1.1-7.6-1.1
	s-7.6-1.1-5.4-1.1c2.2,0-7-1.1-6-1.1c1,0-5.4-1.1-3.8-1.1c1.6,0.6-5.4-1.7-4.4-1.1c1.6,0.6-1-0.6-1.6-1.1c-1-0.6-2.8-1.7-4.4-2.8
	c-1.6-1.7-3.8-1.7-4.8-3.4s-2.2-1.7-3.2-3.4c0-0.6-2.2-47.6-1-54.9c1-7.3-1-45.4-1-51C7.6,65.6,7,25.9,7,25.9z"/>
<path d="M111.7,288.9"/>
<g>
	<path class="st1" d="M242.3,72c-0.2-0.1-0.6,0.6-1,2.1c-0.5,1.5-1.1,3.4-1.8,5.7c-0.7,2.4-1.5,5-2.3,8c-0.8,3-1.8,5.9-2.7,8.8
		c-1,2.9-1.9,5.6-2.9,8.1c-1,2.5-2,4.5-2.9,6c-1,1.5-1.9,2.3-2.7,2.4c-0.8,0.1-1.6-0.7-2.3-2.6c-0.9-1.3-1.9-3.1-3-5.4
		c-1.1-2.3-2.3-4.8-3.5-7.5c-1.2-2.7-2.5-5.5-3.9-8.3c-1.3-2.9-2.7-5.5-4.1-8c-1.4-2.5-2.7-4.6-4-6.4c-1.3-1.8-2.6-3.1-3.8-3.8
		c0,4.3,0.2,8.9,0.7,14s1,10.2,1.6,15.5c0.6,5.2,1.1,10.4,1.6,15.5s0.7,9.8,0.7,14.1c0.3,0.5,0.3,1.1,0,1.6c-0.2,0.5-0.6,1-1.1,1.2
		c-0.5,0.3-1.1,0.3-1.7,0.2s-1.3-0.7-1.8-1.5c-0.8-5.5-1.3-11-1.6-16.7c-0.3-5.7-0.7-11.4-1-17.1s-0.7-11.5-1.2-17.1
		c-0.5-5.7-1.2-11.3-2.1-16.8c-0.1-1.1,0.1-1.8,0.6-2.1c0.4-0.3,1-0.4,1.6-0.4c2.5,0.7,4.7,2,6.6,3.9s3.8,4.1,5.4,6.6
		c1.6,2.5,3.1,5.3,4.4,8.3c1.3,3,2.7,6,4,9c1.3,3,2.6,5.8,3.9,8.5s2.8,5,4.3,7c0.2,0,0.4-0.1,0.6-0.3c0.2-0.2,0.5-0.7,0.8-1.6
		c0.3-0.8,0.8-2.1,1.4-3.9c0.6-1.7,1.4-4.2,2.4-7.3c1-3.1,2.3-7,3.8-11.8c1.5-4.7,3.4-10.5,5.6-17.3c0.1-0.3,0.4-0.6,0.8-0.9
		c0.4-0.2,0.9-0.4,1.4-0.4c0.5,0,1,0.2,1.4,0.5c0.4,0.4,0.7,1,0.9,1.8c0.5,5,1.1,10.4,1.5,16c0.5,5.6,1,11.3,1.5,17.2
		c0.5,5.9,1.2,11.8,1.9,17.8c0.7,6,1.6,11.9,2.6,17.7c-0.1,0.8-0.4,1.3-0.7,1.6c-0.4,0.3-0.8,0.4-1.4,0.4c-0.5-0.1-1.1-0.2-1.8-0.5
		c-0.6-0.3-1.2-0.7-1.8-1.1L242.3,72z"/>
	<path class="st1" d="M262.1,65.5c0-0.7,0.2-1.2,0.7-1.4s1-0.4,1.6-0.4c1.2,0,2,0.4,2.3,1.2c0.3,0.8,0.5,1.7,0.5,2.7
		c-0.3,0.7-0.8,1.1-1.3,1.4c-0.5,0.3-1.1,0.3-1.7,0.2s-1.1-0.5-1.5-1.1C262.3,67.4,262.1,66.6,262.1,65.5z M263.1,82.2
		c0.3-0.2,0.7-0.3,1.1-0.4c0.4-0.1,0.9-0.2,1.3-0.2s0.8,0.1,1.2,0.2c0.4,0.2,0.7,0.5,0.9,0.9c0,3.6,0,7.4,0.1,11.5
		c0.1,4.1,0.2,8.3,0.3,12.6c0.1,4.2,0.3,8.4,0.4,12.5c0.1,4.1,0.2,7.9,0.3,11.4c0.1,0.8-0.2,1.5-0.7,1.9c-0.5,0.4-1,0.7-1.6,0.7
		s-1.1-0.2-1.6-0.6s-0.7-1.1-0.7-1.9L263.1,82.2z"/>
	<path class="st1" d="M277.8,83.7c0.1-0.5,0.3-1,0.7-1.3c0.4-0.3,0.8-0.5,1.3-0.6s1,0,1.5,0.2c0.5,0.2,0.9,0.5,1.2,0.9l-0.2,32.8
		c1-3.9,2-7.8,2.8-11.7c0.8-3.9,1.9-7.4,3.2-10.5c1.3-3.1,2.8-5.7,4.8-7.8c1.9-2.1,4.5-3.2,7.6-3.5c1.7-0.2,3.2,0.3,4.4,1.5
		c1.3,1.2,2.3,2.8,3.2,4.8c0.9,2,1.7,4.4,2.3,7.1c0.6,2.7,1.1,5.5,1.4,8.4c0.4,2.9,0.6,5.9,0.8,8.8s0.3,5.7,0.3,8.2
		c0.1,2.5,0.1,4.7,0,6.6c0,1.9-0.1,3.3-0.1,4.2c-0.4,0.9-1.1,1.5-2,1.8c-1,0.3-1.8-0.1-2.6-1.2c-0.1-1-0.1-2.8-0.1-5.4
		s0-5.5-0.1-8.7s-0.2-6.7-0.5-10.3c-0.2-3.6-0.7-6.9-1.2-9.9s-1.4-5.6-2.4-7.6c-1-2.1-2.3-3.2-3.9-3.5c-1.4-0.2-2.7,0.5-4,2.2
		c-1.3,1.7-2.5,3.9-3.7,6.7c-1.2,2.8-2.3,5.9-3.3,9.4c-1,3.5-1.9,6.9-2.7,10.3c-0.8,3.4-1.5,6.5-2,9.4c-0.5,2.8-0.9,5-1.1,6.6
		c-0.2,0.4-0.5,0.8-1,1.1c-0.5,0.3-1,0.4-1.6,0.5c-0.6,0-1.1-0.1-1.7-0.3c-0.6-0.2-1-0.6-1.3-1.2L277.8,83.7z"/>
	<path class="st1" d="M345.7,116.9c-0.6,1.4-1.5,3-2.7,4.8c-1.2,1.8-2.6,3.5-4.2,5.1c-1.6,1.6-3.3,2.9-5.2,4.1
		c-1.9,1.1-3.8,1.7-5.9,1.7c-0.9,0-1.6-0.1-2.1-0.3c-0.5-0.2-1-0.5-1.4-0.9s-0.8-0.9-1.1-1.5c-0.3-0.6-0.7-1.3-1.2-2.1
		c-0.5-2.7-0.8-5.8-0.8-9.1c0-3.3,0.2-6.7,0.8-10.1c0.6-3.4,1.4-6.6,2.6-9.7c1.2-3.1,2.7-5.7,4.6-7.9c1.9-2.2,4.2-3.8,6.8-4.7
		c2.7-1,5.7-1,9.2-0.2c0.3-3.4,0.4-6.9,0.1-10.4c-0.3-3.5-0.5-7.1-0.7-10.9c0-0.5,0.2-0.9,0.7-1.2s1.1-0.4,1.7-0.5
		c0.6-0.1,1.2-0.1,1.8,0c0.6,0.1,0.9,0.2,1.1,0.3c-0.1,4.9-0.1,9.4-0.1,13.5c0,4.1,0,8,0,11.6c0,3.6,0,7.2,0,10.5
		c0,3.4,0,6.9,0,10.4c0,3.6,0.1,7.3,0.1,11.2c0,3.9,0,8.3,0,13c0.3,0.9,0.2,1.6-0.2,2.2c-0.4,0.6-0.9,1-1.5,1.1
		c-0.6,0.2-1.2,0.1-1.8-0.2c-0.6-0.3-1-1-1.2-1.9L345.7,116.9z M341.8,90.4c-2.1-0.3-4,0.2-5.9,1.7c-1.8,1.4-3.5,3.4-4.9,5.9
		c-1.4,2.5-2.6,5.3-3.5,8.4c-0.9,3.1-1.5,6.1-1.8,8.9s-0.1,5.5,0.4,7.8s1.4,3.9,2.9,4.8c1.4,0,2.7-0.5,4-1.4c1.3-1,2.6-2.2,3.7-3.7
		c1.2-1.5,2.3-3.1,3.3-5c1-1.8,1.9-3.6,2.7-5.4c0.8-1.7,1.4-3.3,1.8-4.8c0.4-1.4,0.6-2.6,0.6-3.3c0-0.6,0-1.7,0-3.2
		c0-1.5-0.1-3.1-0.3-4.7c-0.2-1.6-0.5-3-1-4.2C343.3,91,342.7,90.4,341.8,90.4z"/>
	<path class="st1" d="M411.3,93.6l-7.5,2.5c-0.6-0.2-1.1-0.5-1.5-0.9c-0.4-0.4-0.7-0.9-0.9-1.4s-0.2-1-0.1-1.4
		c0.1-0.4,0.3-0.8,0.7-1l9.4-3.5l-0.2-23.2c0.2-0.7,0.5-1.2,1.1-1.6c0.5-0.3,1.1-0.5,1.7-0.5c0.6,0,1.1,0.2,1.6,0.6
		c0.5,0.4,0.8,0.8,1,1.4c-0.1,1.7-0.2,3.5-0.2,5.4c-0.1,1.9-0.1,3.8-0.1,5.7c0,1.9,0,3.7,0,5.5c0.1,1.8,0.2,3.4,0.3,4.9l12.7-5.2
		c0.8-0.2,1.4-0.1,1.8,0.2c0.4,0.4,0.7,0.8,0.9,1.4c0.1,0.6,0.1,1.1-0.1,1.7c-0.2,0.5-0.6,0.9-1.1,1.1l-14.1,6.4
		c0,0.5,0,1.8,0.1,3.9c0.1,2.1,0.1,4.5,0.2,7.3c0.1,2.8,0.1,5.8,0.2,8.9c0.1,3.2,0.1,6.2,0.1,8.9c0,2.8,0.1,5.2,0.1,7.3
		c0,2.1,0,3.4,0,3.9c-0.1,1.8-0.6,2.7-1.6,2.7c-0.9,0-1.9-0.4-3-1.3L411.3,93.6z"/>
	<path class="st1" d="M464.9,131.6c0.2-1.9,0.3-4.2,0.4-7.1c0.1-2.8,0.2-5.9,0.1-9.1c0-3.2-0.1-6.5-0.3-9.7
		c-0.2-3.3-0.4-6.2-0.8-8.8c-0.4-2.6-0.8-4.8-1.4-6.5s-1.3-2.7-2.1-2.8c-1.8-0.5-3.4-0.4-5,0.5c-1.6,0.8-3.1,2.2-4.6,4
		c-1.4,1.8-2.7,4-3.9,6.6c-1.2,2.5-2.3,5.2-3.3,8c-1,2.8-1.9,5.6-2.7,8.4c-0.8,2.8-1.4,5.4-1.9,7.8c-0.5,2.4-0.9,4.4-1.1,6
		c-0.2,1.7-0.3,2.7-0.3,3.2c-0.4,0-0.9,0.1-1.4,0.2c-0.6,0.1-1.1,0.2-1.7,0.3c-0.5,0.1-1,0.1-1.4-0.1s-0.6-0.5-0.6-1L431.4,64
		c0-0.5,0.2-0.8,0.7-0.9c0.4-0.1,0.9-0.2,1.5-0.1c0.5,0.1,1.1,0.2,1.6,0.4c0.5,0.2,0.8,0.4,1,0.7l0.4,51.8c0.3-0.9,0.8-2.4,1.3-4.5
		c0.5-2.1,1.2-4.4,2-7c0.8-2.6,1.8-5.2,3-7.9c1.2-2.7,2.7-5.1,4.4-7.3c1.7-2.2,3.8-3.9,6.2-5.1c2.4-1.3,5.1-1.7,8.2-1.5
		c1,0.5,1.9,1.2,2.7,2.1c0.8,0.8,1.5,2,2.1,3.5c0.6,1.5,1.2,3.4,1.6,5.7c0.5,2.3,0.9,5.2,1.2,8.6c0.3,3.4,0.6,7.6,0.8,12.4
		c0.2,4.8,0.3,10.4,0.4,16.9c-0.2,0.4-0.5,0.8-1,1.1c-0.5,0.4-1,0.6-1.6,0.7c-0.6,0.1-1.1,0-1.7-0.2
		C465.6,133.1,465.2,132.5,464.9,131.6z"/>
	<path class="st1" d="M482.1,110.7c-0.4,0.3-1.1,0.5-2,0.4c-1-0.1-1.8-0.3-2.6-0.6s-1.3-0.8-1.6-1.4c-0.3-0.6,0.1-1.2,1-2
		c0.4-0.3,0.8-0.6,1.3-0.7c0.5-0.1,0.9-0.3,1.4-0.4c0.5-0.1,0.8-0.3,1.1-0.6c0.3-0.3,0.5-0.7,0.5-1.3c0.1-2.5,0.3-5,0.6-7.5
		c0.4-2.6,1-4.9,2-6.9c1-2,2.4-3.6,4.2-4.8c1.8-1.2,4.3-1.7,7.3-1.4c1.1,0,2.3,0.3,3.7,0.8c1.4,0.5,2.7,1.2,3.9,2.1
		c1.3,0.8,2.4,1.9,3.3,3c0.9,1.2,1.5,2.4,1.7,3.8c0.4,0.5,0.2,1.2-0.7,2.1s-2,1.7-3.4,2.7c-1.5,1-3.1,2-5,3.1c-1.9,1-3.7,2-5.4,3
		c-1.7,0.9-3.2,1.8-4.6,2.5c-1.3,0.7-2.2,1.2-2.5,1.5c0.3,2.1,0.7,4.4,1.1,6.7c0.4,2.4,0.9,4.5,1.6,6.5c0.7,2,1.6,3.6,2.7,4.9
		c1.1,1.3,2.4,1.9,4.1,1.9c2.4,0.2,4.5-0.2,6.2-1.1c1.7-0.9,3.2-2,4.3-3.4c1.1-1.4,2.1-3,2.7-4.7c0.7-1.7,1.2-3.3,1.6-4.8
		c0.4-1.5,0.6-2.8,0.7-3.9c0.1-1.1,0.3-1.7,0.4-1.8c0.6-0.3,1.3-0.3,2.1,0c0.8,0.3,1.2,1.1,1.3,2.4c0.1,2.1-0.4,4.6-1.4,7.3
		c-1,2.7-2.3,5.2-4.1,7.5s-3.8,4.1-6.2,5.5s-4.9,1.9-7.6,1.4c-2.8-0.1-5-0.9-6.6-2.4s-2.9-3.4-3.9-5.7c-1-2.2-1.7-4.6-2.1-7
		C482.8,114.8,482.4,112.6,482.1,110.7z M503.6,93.1c-1.8-2.4-3.5-3.9-5.3-4.6s-3.7-0.8-5.6-0.6c-1.1,0.2-2.2,0.7-3,1.6
		c-0.9,0.9-1.6,2.1-2.1,3.4c-0.5,1.4-0.9,3-1.1,4.7c-0.2,1.7-0.2,3.5-0.1,5.3L503.6,93.1z"/>
	<path class="st1" d="M617.1,72c-0.2-0.1-0.6,0.6-1,2.1c-0.5,1.5-1.1,3.4-1.8,5.7c-0.7,2.4-1.5,5-2.3,8c-0.8,3-1.8,5.9-2.7,8.8
		c-1,2.9-1.9,5.6-2.9,8.1c-1,2.5-2,4.5-2.9,6c-1,1.5-1.9,2.3-2.7,2.4c-0.8,0.1-1.6-0.7-2.3-2.6c-0.9-1.3-1.9-3.1-3-5.4
		c-1.1-2.3-2.3-4.8-3.5-7.5c-1.2-2.7-2.5-5.5-3.9-8.3c-1.3-2.9-2.7-5.5-4.1-8c-1.4-2.5-2.7-4.6-4-6.4c-1.3-1.8-2.6-3.1-3.8-3.8
		c0,4.3,0.2,8.9,0.7,14s1,10.2,1.6,15.5c0.6,5.2,1.1,10.4,1.6,15.5s0.7,9.8,0.7,14.1c0.3,0.5,0.3,1.1,0,1.6c-0.2,0.5-0.6,1-1.1,1.2
		c-0.5,0.3-1.1,0.3-1.7,0.2s-1.3-0.7-1.8-1.5c-0.8-5.5-1.3-11-1.6-16.7c-0.3-5.7-0.7-11.4-1-17.1s-0.7-11.5-1.2-17.1
		c-0.5-5.7-1.2-11.3-2.1-16.8c-0.1-1.1,0.1-1.8,0.6-2.1c0.4-0.3,1-0.4,1.6-0.4c2.5,0.7,4.7,2,6.6,3.9s3.8,4.1,5.4,6.6
		c1.6,2.5,3.1,5.3,4.4,8.3c1.3,3,2.7,6,4,9c1.3,3,2.6,5.8,3.9,8.5s2.8,5,4.3,7c0.2,0,0.4-0.1,0.6-0.3c0.2-0.2,0.5-0.7,0.8-1.6
		c0.3-0.8,0.8-2.1,1.4-3.9c0.6-1.7,1.4-4.2,2.4-7.3c1-3.1,2.3-7,3.8-11.8c1.5-4.7,3.4-10.5,5.6-17.3c0.1-0.3,0.4-0.6,0.8-0.9
		c0.4-0.2,0.9-0.4,1.4-0.4c0.5,0,1,0.2,1.4,0.5c0.4,0.4,0.7,1,0.9,1.8c0.5,5,1.1,10.4,1.5,16c0.5,5.6,1,11.3,1.5,17.2
		c0.5,5.9,1.2,11.8,1.9,17.8c0.7,6,1.6,11.9,2.6,17.7c-0.1,0.8-0.4,1.3-0.7,1.6c-0.4,0.3-0.8,0.4-1.4,0.4c-0.5-0.1-1.1-0.2-1.8-0.5
		c-0.6-0.3-1.2-0.7-1.8-1.1L617.1,72z"/>
	<path class="st1" d="M665.2,131.8c-0.8-1.1-1.2-2.7-1.4-4.5c-0.2-1.9-0.3-3.8-0.3-5.9c0-2.1,0-4.1,0-6.1c0-2-0.1-3.7-0.5-5.1
		c-2.6,5.6-5,10-7.3,13.2c-2.3,3.1-4.3,5.4-6.2,6.7c-1.9,1.3-3.6,1.9-5.1,1.8c-1.5-0.1-2.8-0.7-3.9-1.6c-1.1-1-1.9-2.1-2.5-3.5
		c-0.6-1.4-0.9-2.7-1-4c-0.4-2.1-0.4-4.6,0-7.5c0.4-2.9,1-5.9,1.9-9.1c0.9-3.1,2.1-6.2,3.4-9.1c1.4-3,3-5.6,4.8-7.8
		c1.8-2.2,3.7-3.8,5.7-4.9c2-1.1,4.1-1.2,6.3-0.5c1.1-0.1,2-0.1,2.7,0.1c0.7,0.2,1.4,0.6,1.8,1.2c0.5,0.6,0.8,1.4,1.1,2.5
		c0.2,1.1,0.4,2.4,0.5,4.1c-0.1,5.3,0,9.8,0.5,13.5c0.4,3.7,0.9,7,1.4,9.8c0.5,2.8,1.1,5.4,1.6,7.7c0.5,2.3,0.8,4.7,0.9,7.1
		c0,0.9-0.2,1.5-0.7,2c-0.4,0.5-0.9,0.8-1.5,0.9c-0.5,0.1-1.1,0.1-1.5-0.1C665.5,132.6,665.2,132.2,665.2,131.8z M660.4,90.4
		c-1.3-1.7-2.7-2.5-4.3-2.2c-1.5,0.3-3,1.2-4.6,2.8c-1.5,1.6-2.9,3.7-4.3,6.3c-1.4,2.6-2.5,5.4-3.5,8.3c-1,3-1.7,5.9-2.2,8.8
		c-0.5,2.9-0.6,5.5-0.3,7.8c0.8,2.5,1.7,3.9,2.8,4.4c1.1,0.5,2.3,0.3,3.5-0.5c1.3-0.8,2.5-2.2,3.9-4.1c1.3-1.9,2.6-3.9,3.8-6
		c1.2-2.2,2.3-4.3,3.2-6.5c1-2.2,1.7-4,2.3-5.5L660.4,90.4z"/>
	<path class="st1" d="M678.3,156.9c0.5-6.8,0.8-12.4,1.1-16.9c0.2-4.5,0.4-8.3,0.5-11.5s0.1-6,0-8.5c-0.1-2.5-0.1-5.1-0.2-7.8
		c-0.1-2.8-0.2-5.9-0.4-9.5c-0.1-3.6-0.3-8.1-0.4-13.6c0.1-0.6,0.3-1.1,0.7-1.6c0.3-0.5,0.7-0.8,1.1-1c0.4-0.2,0.9-0.2,1.4,0
		c0.5,0.2,1,0.7,1.5,1.5l-0.2,10.7c1.9-2.4,4-4.6,6.3-6.6c2.3-2,4.7-3.6,7.1-4.9c2.4-1.3,4.7-2.2,6.9-2.7c2.2-0.5,4.2-0.6,5.9-0.1
		c1.7,0.4,3,1.4,3.9,2.9c0.9,1.5,1.2,3.6,0.9,6.4c-0.2,2.4-1,5-2.2,7.8c-1.3,2.8-2.8,5.5-4.6,8.2c-1.8,2.7-3.8,5.3-6,7.8
		c-2.2,2.5-4.3,4.7-6.4,6.6c-2.1,1.9-4,3.5-5.8,4.6c-1.8,1.2-3.2,1.8-4.2,1.8c-0.1,0.8-0.1,1.8-0.2,3.2c-0.1,1.4-0.2,3-0.3,4.8
		c-0.1,1.8-0.2,3.6-0.4,5.5c-0.1,1.9-0.3,3.7-0.4,5.5c-0.1,1.8-0.2,3.3-0.3,4.8c-0.1,1.4-0.2,2.5-0.2,3.2c-0.3,0.3-0.6,0.5-1,0.7
		c-0.4,0.2-0.8,0.4-1.2,0.4c-0.4,0.1-0.9,0-1.3-0.3C679.1,158.1,678.7,157.6,678.3,156.9z M684.5,125.8c1.8-0.7,4-2.1,6.5-4.3
		c2.5-2.2,5-4.8,7.5-7.8c2.5-3,4.7-6.4,6.8-10c2-3.6,3.4-7.2,4.3-10.7c-0.3-1.7-1.1-2.9-2.2-3.4c-1.1-0.5-2.5-0.7-4.1-0.4
		c-1.6,0.3-3.3,1-5.1,2.1c-1.9,1.1-3.7,2.3-5.4,3.8c-1.7,1.4-3.3,3-4.8,4.8c-1.5,1.8-2.6,3.5-3.4,5.2V125.8z"/>
</g>
<g>
	<g>
		<g>
			<path class="st1" d="M106.4,80.7c4.1,7,5.1,16.4-3.7,20.7c-8,3.9-17.4,4.2-21.3-4.6c-3.1-7-3.1-15.8,5.2-19
				c6.8-2.7,14.6-3.4,19.5,2.6c3.9,4.6,10.7-1.9,6.9-6.5c-8-9.7-23.3-8.5-33.7-3c-12.1,6.5-11.8,23.1-5,33.3
				c7.4,11.2,21.9,11,33.3,5.2c13.5-6.8,14-21.9,7.2-33.2C111.7,70.9,103.3,75.5,106.4,80.7L106.4,80.7z"/>
		</g>
		<g>
			<path class="st1" d="M135.4,69.8c17.5,37.1-19,69.9-43.2,95.7c2.3,0,4.6,0,6.9,0C76,142.5,46.6,112.7,51.3,78.3
				c5.3-38.6,73.2-48.3,86.3-9.1c1.9,5.6,11.3,3.2,9.4-2.4C133.4,25.5,79,28.2,52.1,55.5C16.6,91.7,66,146,92.3,172
				c1.7,1.7,5.2,1.9,6.9,0c28.6-30.6,65.2-63.5,44.7-106.9C141.3,59.8,132.9,64.4,135.4,69.8L135.4,69.8z"/>
		</g>
	</g>
</g>
</svg>
