<?xml version="1.0" encoding="utf-8"?>
<!-- Generator: Adobe Illustrator 23.0.1, SVG Export Plug-In . SVG Version: 6.00 Build 0)  -->
<svg version="1.1" id="Calque_1" xmlns="http://www.w3.org/2000/svg" xmlns:xlink="http://www.w3.org/1999/xlink" x="0px" y="0px"
	 viewBox="0 0 143 157.7" style="enable-background:new 0 0 143 157.7;" xml:space="preserve">
<style type="text/css">
	.st0{fill:#860CE6;}
</style>
<g>
	<g>
		<g>
			<path class="st0" d="M83.8,52.2c4.4,7.9,5.4,18.5-3.9,23.3c-8.5,4.4-18.5,4.7-22.6-5.2C54,62.4,54,52.5,62.8,48.9
				c7.2-3,15.5-3.8,20.7,2.9c4.1,5.2,11.4-2.1,7.3-7.3c-8.5-10.9-24.7-9.6-35.7-3.4c-12.8,7.3-12.5,26-5.3,37.5
				C57.7,91.2,73,91,85.1,84.5c14.3-7.7,14.8-24.6,7.6-37.4C89.4,41.2,80.5,46.4,83.8,52.2L83.8,52.2z"/>
		</g>
		<g>
			<path class="st0" d="M114.6,39.9c18.6,41.7-20.2,78.7-45.8,107.7c2.4,0,4.9,0,7.3,0c-24.5-25.8-55.7-59.4-50.7-98.1
				C31,6.1,103-4.9,116.9,39.3c2,6.3,12,3.6,10-2.7C112.4-9.9,54.7-6.9,26.2,23.9C-11.5,64.6,41,125.7,68.9,155
				c1.8,1.9,5.5,2.1,7.3,0c30.3-34.4,69.2-71.5,47.4-120.3C120.8,28.7,111.9,33.9,114.6,39.9L114.6,39.9z"/>
		</g>
	</g>
</g>
</svg>
