<?xml version="1.0" encoding="utf-8"?>
<!-- Generator: Adobe Illustrator 23.0.1, SVG Export Plug-In . SVG Version: 6.00 Build 0)  -->
<svg version="1.1" id="Calque_1" xmlns="http://www.w3.org/2000/svg" xmlns:xlink="http://www.w3.org/1999/xlink" x="0px" y="0px"
	 viewBox="0 0 143 157.7" style="enable-background:new 0 0 143 157.7;" xml:space="preserve">
<style type="text/css">
	.st0{fill:#860CE6;}
	.st1{enable-background:new    ;}
	.st2{fill:#FFFFFF;}
</style>
<g>
	<g>
		<g>
			<path d="M83.8,52.2c4.4,7.9,5.4,18.5-3.9,23.3c-8.5,4.4-18.5,4.7-22.6-5.2C54,62.4,54,52.5,62.8,48.9c7.2-3,15.5-3.8,20.7,2.9
				c4.1,5.2,11.4-2.1,7.3-7.3c-8.5-10.9-24.7-9.6-35.7-3.4c-12.8,7.3-12.5,26-5.3,37.5C57.7,91.2,73,91,85.1,84.5
				c14.3-7.7,14.8-24.6,7.6-37.4C89.4,41.2,80.5,46.4,83.8,52.2L83.8,52.2z"/>
		</g>
		<g>
			<path d="M114.6,39.9c18.6,41.7-20.2,78.7-45.8,107.7c2.4,0,4.9,0,7.3,0c-24.5-25.8-55.7-59.4-50.7-98.1
				C31,6.1,103-4.9,116.9,39.3c2,6.3,12,3.6,10-2.7C112.4-9.9,54.7-6.9,26.2,23.9C-11.5,64.6,41,125.7,68.9,155
				c1.8,1.9,5.5,2.1,7.3,0c30.3-34.4,69.2-71.5,47.4-120.3C120.8,28.7,111.9,33.9,114.6,39.9L114.6,39.9z"/>
		</g>
	</g>
	<g>
		<path class="st0" d="M0.4,47.7c0.1-1-0.2-1.8,2.9-2.6c1.2-0.3,3.1-0.6,3.1-0.6s2.5-0.2,4-0.2c2.5,0,2.3,0,5.4-0.2s2-0.1,6.2-0.1
			s1.7,0,6.8,0s1.9,0,5.9,0.1s3.7,0.1,7.6,0.1s5.4,0,7.9,0s0.1,0,4.1,0s2.8,0,6.4,0s5.7,0,7.1,0s5.5,0,7.5,0s5.2,0,5.9,0
			c0.7,0,6.4,0,7.1,0s5.9,0,6.5,0c0.5,0,5.6,0,5.9,0s4.4,0,4.7,0s8.1,0,8.5,0s9-0.1,9.3-0.1s2.3,0,3.1,0s2.7,0,3.4,0.1
			s4.3,0.2,5,0.2s1.5,0.1,2.1,0.1s0.8,0,1.2,0.1s0.5,0,1,0.1s0.7,0.2,0.9,0.2c0.2,0.1,0.2,0.1,0.5,0.2c0.2,0.2,0.2,0.1,0.5,0.3
			s0.7,0.8,0.7,0.9c0.1,0.1,0-0.1,0.4,0.7s0.5,0.8,0.5,1c0.3,2.1-0.3,13.2-0.3,13.3s-0.1,1.7-0.1,1.7c0,0.1,0,1.1,0,1.1v1.5
			c0,0,0,1.9,0,2s0.1,2,0.1,2s0.1,2.1,0.1,2.2s0,3.6,0,3.6s0.2,1.3,0.2,1.4c0,0,0.1,0.2,0,0.4s-0.1,0.3-0.3,0.5
			c-0.3,0.2-0.3,0.3-0.8,0.4c-0.4,0.1-0.5,0.2-0.9,0.3s-0.6,0.2-1,0.2s-0.7,0.2-1,0.2s-0.6,0.1-1.2,0.2c-0.6,0.1-0.4,0.1-1,0.2
			c-0.5,0.1-1,0.1-1.5,0.2c-0.5,0-1.3,0.1-1.7,0.2c-0.5,0-1.6,0.1-2,0.1c-0.3,0-1.9,0.1-2.1,0.1s-2.3,0.1-2.7,0.1s-0.9,0-1.2,0
			c-0.3,0-1.5,0-1.7,0s-2,0-2.2,0c-0.3,0-2.4,0-4.3,0c-2,0-3.5,0-4.5-0.1c-1,0-4.6-0.1-4.9-0.1s-4.7-0.1-5-0.1s-4.8,0-5.2,0
			s-4,0-4.4,0s-3.5,0-3.9,0s-3.8,0-4,0s-4.8,0-5,0s-3.4,0-3.3,0s-5.1,0-4.7,0s-4.5,0-4.2,0s-6.4,0-6,0c0.5,0-7.8,0.1-7.4,0.1
			s-7.2,0-7,0s-6.4,0-6.2,0s-6.4,0-6,0s-6-0.1-5.4,0c0.7,0-6.2-0.1-5.8-0.1s-2.4-0.1-2.1,0c0.3,0-2.6-0.1-2.4-0.1s-2-0.1-1.8-0.1
			s-2.3-0.1-2.1-0.1s-2.3-0.1-1.9-0.1c0.4,0-2.4-0.2-1.9-0.1c0.5,0-1.6-0.1-1.3-0.1s-1-0.1-0.8-0.1s-1.6-0.2-1.2-0.1
			c0.3,0-1.5-0.2-1.4-0.2s-1.4-0.2-1-0.2S4.8,78.2,5,78.2S4,78,4.3,78c0.3,0.1-1-0.3-0.8-0.2c0.3,0.1-0.2-0.1-0.3-0.2
			c-0.2-0.1-0.5-0.3-0.8-0.5c-0.3-0.3-0.7-0.3-0.9-0.6s-0.4-0.3-0.6-0.6c0-0.1-0.4-8.5-0.2-9.8S0.5,58,0.5,57
			C0.5,54.8,0.4,47.7,0.4,47.7z"/>
		<g class="st1">
			<path class="st2" d="M17.6,54.5c-0.1,0-0.2,0.2-0.3,0.6c-0.1,0.4-0.3,1-0.5,1.7s-0.4,1.5-0.7,2.3c-0.2,0.9-0.5,1.7-0.8,2.6
				c-0.3,0.9-0.6,1.6-0.9,2.4c-0.3,0.7-0.6,1.3-0.9,1.8c-0.3,0.4-0.5,0.7-0.8,0.7c-0.2,0-0.5-0.2-0.7-0.8c-0.3-0.4-0.5-0.9-0.9-1.6
				s-0.7-1.4-1-2.2S9.4,60.4,9,59.6c-0.4-0.8-0.8-1.6-1.2-2.3c-0.4-0.7-0.8-1.4-1.2-1.9c-0.4-0.5-0.8-0.9-1.1-1.1
				c0,1.3,0.1,2.6,0.2,4.1s0.3,3,0.5,4.5s0.3,3,0.5,4.5C6.9,68.9,7,70.3,7,71.6c0.1,0.2,0.1,0.3,0,0.5s-0.2,0.3-0.3,0.4
				c-0.1,0.1-0.3,0.1-0.5,0S5.8,72.3,5.6,72c-0.2-1.6-0.4-3.2-0.5-4.9c-0.1-1.7-0.2-3.3-0.3-5c-0.1-1.7-0.2-3.4-0.3-5
				s-0.3-3.3-0.6-4.9c0-0.3,0-0.5,0.2-0.6c0.1-0.1,0.3-0.1,0.5-0.1c0.7,0.2,1.4,0.6,1.9,1.1c0.6,0.6,1.1,1.2,1.6,1.9
				s0.9,1.6,1.3,2.4c0.4,0.9,0.8,1.8,1.2,2.6c0.4,0.9,0.8,1.7,1.2,2.5s0.8,1.5,1.3,2.1c0.1,0,0.1,0,0.2-0.1c0.1-0.1,0.1-0.2,0.2-0.5
				c0.1-0.2,0.2-0.6,0.4-1.1s0.4-1.2,0.7-2.1c0.3-0.9,0.7-2.1,1.1-3.5c0.4-1.4,1-3.1,1.6-5.1c0-0.1,0.1-0.2,0.2-0.3s0.3-0.1,0.4-0.1
				s0.3,0.1,0.4,0.2c0.1,0.1,0.2,0.3,0.3,0.5c0.2,1.5,0.3,3,0.4,4.7s0.3,3.3,0.4,5c0.2,1.7,0.3,3.5,0.6,5.2c0.2,1.8,0.5,3.5,0.8,5.2
				c0,0.2-0.1,0.4-0.2,0.5s-0.2,0.1-0.4,0.1c-0.2,0-0.3-0.1-0.5-0.2s-0.4-0.2-0.5-0.3L17.6,54.5z"/>
			<path class="st2" d="M21.8,52.6c0-0.2,0.1-0.3,0.2-0.4c0.1-0.1,0.3-0.1,0.5-0.1c0.4,0,0.6,0.1,0.7,0.3s0.1,0.5,0.1,0.8
				c-0.1,0.2-0.2,0.3-0.4,0.4c-0.2,0.1-0.3,0.1-0.5,0s-0.3-0.2-0.4-0.3C21.9,53.2,21.8,53,21.8,52.6z M22.1,57.5
				c0.1,0,0.2-0.1,0.3-0.1c0.1,0,0.3,0,0.4,0s0.2,0,0.3,0.1c0.1,0,0.2,0.1,0.3,0.3c0,1,0,2.2,0,3.4s0.1,2.4,0.1,3.7
				c0,1.2,0.1,2.5,0.1,3.7s0.1,2.3,0.1,3.3c0,0.2,0,0.4-0.2,0.6c-0.1,0.1-0.3,0.2-0.5,0.2s-0.3-0.1-0.5-0.2
				c-0.1-0.1-0.2-0.3-0.2-0.6L22.1,57.5z"/>
			<path class="st2" d="M24.8,58c0-0.2,0.1-0.3,0.2-0.4c0.1-0.1,0.2-0.2,0.4-0.2c0.1,0,0.3,0,0.4,0c0.1,0.1,0.3,0.1,0.4,0.3
				l-0.1,9.6c0.3-1.2,0.6-2.3,0.8-3.4c0.2-1.1,0.6-2.2,0.9-3.1c0.4-0.9,0.8-1.7,1.4-2.3s1.3-0.9,2.2-1c0.5,0,0.9,0.1,1.3,0.4
				c0.4,0.3,0.7,0.8,1,1.4c0.3,0.6,0.5,1.3,0.7,2.1s0.3,1.6,0.4,2.5c0.1,0.9,0.2,1.7,0.2,2.6s0.1,1.7,0.1,2.4c0,0.7,0,1.4,0,1.9
				c0,0.6,0,1,0,1.2c-0.1,0.3-0.3,0.5-0.6,0.5c-0.3,0.1-0.5,0-0.8-0.3c0-0.3,0-0.8,0-1.6c0-0.7,0-1.6,0-2.6s-0.1-2-0.1-3
				c-0.1-1-0.2-2-0.4-2.9s-0.4-1.6-0.7-2.2s-0.7-0.9-1.1-1s-0.8,0.2-1.2,0.7c-0.4,0.5-0.7,1.2-1.1,2c-0.3,0.8-0.7,1.7-1,2.8
				c-0.3,1-0.6,2-0.8,3c-0.2,1-0.4,1.9-0.6,2.7s-0.3,1.5-0.3,1.9c0,0.1-0.1,0.2-0.3,0.3c-0.1,0.1-0.3,0.1-0.5,0.1s-0.3,0-0.5-0.1
				s-0.3-0.2-0.4-0.4L24.8,58z"/>
			<path class="st2" d="M43.1,67.7c-0.2,0.4-0.4,0.9-0.8,1.4c-0.4,0.5-0.8,1-1.2,1.5c-0.5,0.5-1,0.9-1.5,1.2
				c-0.6,0.3-1.1,0.5-1.7,0.5c-0.3,0-0.5,0-0.6-0.1c-0.2-0.1-0.3-0.2-0.4-0.3c-0.1-0.1-0.2-0.3-0.3-0.4s-0.2-0.4-0.4-0.6
				c-0.1-0.8-0.2-1.7-0.2-2.7s0.1-2,0.2-3c0.2-1,0.4-1.9,0.8-2.9c0.3-0.9,0.8-1.7,1.3-2.3c0.6-0.6,1.2-1.1,2-1.4
				c0.8-0.3,1.7-0.3,2.7-0.1c0.1-1,0.1-2,0-3s-0.1-2.1-0.2-3.2c0-0.2,0.1-0.3,0.2-0.3c0.1-0.1,0.3-0.1,0.5-0.1s0.4,0,0.5,0
				s0.3,0,0.3,0.1c0,1.4,0,2.8,0,4s0,2.3,0,3.4c0,1.1,0,2.1,0,3.1s0,2,0,3.1c0,1,0,2.1,0,3.3c0,1.2,0,2.4,0,3.8
				c0.1,0.3,0.1,0.5-0.1,0.6s-0.3,0.3-0.4,0.3c-0.2,0-0.4,0-0.5-0.1c-0.2-0.1-0.3-0.3-0.3-0.6L43.1,67.7z M42,59.9
				c-0.6-0.1-1.2,0.1-1.7,0.5s-1,1-1.4,1.7s-0.8,1.5-1,2.5c-0.3,0.9-0.4,1.8-0.5,2.6c-0.1,0.8,0,1.6,0.1,2.3s0.4,1.1,0.8,1.4
				c0.4,0,0.8-0.1,1.2-0.4s0.7-0.6,1.1-1.1c0.3-0.4,0.7-0.9,1-1.5c0.3-0.5,0.6-1.1,0.8-1.6s0.4-1,0.5-1.4s0.2-0.8,0.2-1
				c0-0.2,0-0.5,0-0.9s0-0.9-0.1-1.4s-0.2-0.9-0.3-1.2C42.4,60.1,42.2,59.9,42,59.9z"/>
			<path class="st2" d="M59.2,60.9L57,61.6c-0.2,0-0.3-0.1-0.4-0.3c-0.1-0.1-0.2-0.3-0.3-0.4c0-0.1-0.1-0.3,0-0.4
				c0-0.1,0.1-0.2,0.2-0.3l2.7-1v-6.8c0-0.2,0.2-0.4,0.3-0.5c0.2-0.1,0.3-0.1,0.5-0.1s0.3,0.1,0.5,0.2c0.1,0.1,0.2,0.2,0.3,0.4
				c0,0.5-0.1,1-0.1,1.6s0,1.1,0,1.7c0,0.6,0,1.1,0,1.6s0,1,0.1,1.4l3.7-1.5c0.2-0.1,0.4,0,0.5,0.1s0.2,0.2,0.3,0.4
				c0,0.2,0,0.3,0,0.5s-0.2,0.3-0.3,0.3l-4.1,1.9c0,0.2,0,0.5,0,1.1s0,1.3,0,2.1s0,1.7,0,2.6s0,1.8,0,2.6c0,0.8,0,1.5,0,2.1
				s0,1,0,1.1c0,0.5-0.2,0.8-0.5,0.8s-0.6-0.1-0.9-0.4L59.2,60.9z"/>
			<path class="st2" d="M73.3,72c0-0.5,0.1-1.2,0.1-2.1c0-0.8,0-1.7,0-2.7c0-0.9,0-1.9-0.1-2.9s-0.1-1.8-0.2-2.6s-0.2-1.4-0.4-1.9
				c-0.2-0.5-0.4-0.8-0.6-0.8c-0.5-0.2-1-0.1-1.5,0.1c-0.5,0.2-0.9,0.6-1.3,1.2c-0.4,0.5-0.8,1.2-1.2,1.9c-0.4,0.7-0.7,1.5-1,2.4
				s-0.6,1.7-0.8,2.5s-0.4,1.6-0.6,2.3c-0.1,0.7-0.3,1.3-0.3,1.8s-0.1,0.8-0.1,1c-0.1,0-0.3,0-0.4,0.1s-0.3,0.1-0.5,0.1
				s-0.3,0-0.4,0s-0.2-0.1-0.2-0.3l-0.4-19.8c0-0.1,0.1-0.2,0.2-0.3s0.3-0.1,0.4,0c0.2,0,0.3,0.1,0.5,0.1c0.1,0.1,0.2,0.1,0.3,0.2
				L65,67.4c0.1-0.3,0.2-0.7,0.4-1.3c0.2-0.6,0.3-1.3,0.6-2c0.2-0.8,0.5-1.5,0.9-2.3s0.8-1.5,1.3-2.1s1.1-1.1,1.8-1.5
				s1.5-0.5,2.4-0.4c0.3,0.2,0.5,0.4,0.8,0.6c0.2,0.2,0.4,0.6,0.6,1s0.3,1,0.5,1.7c0.1,0.7,0.3,1.5,0.3,2.5c0.1,1,0.2,2.2,0.2,3.6
				c0.1,1.4,0.1,3.1,0.1,5c0,0.1-0.1,0.2-0.3,0.3c-0.1,0.1-0.3,0.2-0.5,0.2s-0.3,0-0.5-0.1C73.5,72.5,73.4,72.3,73.3,72z"/>
			<path class="st2" d="M76.7,65.9C76.6,66,76.4,66,76.1,66s-0.5-0.1-0.8-0.2c-0.2-0.1-0.4-0.2-0.5-0.4c-0.1-0.2,0-0.4,0.3-0.6
				c0.1-0.1,0.2-0.2,0.4-0.2c0.1,0,0.3-0.1,0.4-0.1s0.2-0.1,0.3-0.2c0.1-0.1,0.1-0.2,0.2-0.4c0-0.7,0.1-1.5,0.2-2.2s0.3-1.4,0.6-2
				c0.3-0.6,0.7-1.1,1.2-1.4c0.5-0.4,1.2-0.5,2.1-0.4c0.3,0,0.7,0.1,1.1,0.2s0.8,0.4,1.2,0.6c0.4,0.2,0.7,0.5,1,0.9
				c0.3,0.3,0.4,0.7,0.5,1.1c0.1,0.2,0,0.4-0.2,0.6c-0.2,0.2-0.6,0.5-1,0.8s-0.9,0.6-1.5,0.9c-0.5,0.3-1.1,0.6-1.6,0.9
				c-0.5,0.3-1,0.5-1.3,0.7C78.3,64.8,78.1,65,78,65c0.1,0.6,0.2,1.3,0.3,2c0.1,0.7,0.3,1.3,0.5,1.9s0.5,1.1,0.8,1.4
				c0.3,0.4,0.7,0.6,1.2,0.6c0.7,0,1.3-0.1,1.8-0.3c0.5-0.3,0.9-0.6,1.3-1s0.6-0.9,0.8-1.4c0.2-0.5,0.4-1,0.5-1.4s0.2-0.8,0.2-1.1
				c0-0.3,0.1-0.5,0.1-0.5c0.2-0.1,0.4-0.1,0.6,0s0.4,0.3,0.4,0.7c0,0.6-0.1,1.3-0.4,2.1c-0.3,0.8-0.7,1.5-1.2,2.2s-1.1,1.2-1.8,1.6
				c-0.7,0.4-1.4,0.5-2.2,0.4c-0.8,0-1.5-0.3-1.9-0.7s-0.9-1-1.1-1.7c-0.3-0.6-0.5-1.3-0.6-2.1C76.9,67.1,76.8,66.5,76.7,65.9z
				 M83,60.7c-0.5-0.7-1-1.2-1.6-1.3c-0.5-0.2-1.1-0.2-1.6-0.2c-0.3,0-0.6,0.2-0.9,0.5s-0.5,0.6-0.6,1c-0.2,0.4-0.3,0.9-0.3,1.4
				c-0.1,0.5-0.1,1,0,1.6L83,60.7z"/>
			<path class="st2" d="M113.1,54.5c-0.1,0-0.2,0.2-0.3,0.6c-0.1,0.4-0.3,1-0.5,1.7s-0.4,1.5-0.7,2.3c-0.2,0.9-0.5,1.7-0.8,2.6
				c-0.3,0.9-0.6,1.6-0.9,2.4c-0.3,0.7-0.6,1.3-0.9,1.8c-0.3,0.4-0.5,0.7-0.8,0.7s-0.5-0.2-0.7-0.8c-0.3-0.4-0.5-0.9-0.9-1.6
				c-0.3-0.7-0.7-1.4-1-2.2c-0.4-0.8-0.7-1.6-1.1-2.4c-0.4-0.8-0.8-1.6-1.2-2.3s-0.8-1.4-1.2-1.9s-0.8-0.9-1.1-1.1
				c0,1.3,0.1,2.6,0.2,4.1s0.3,3,0.5,4.5s0.3,3,0.5,4.5c0.1,1.5,0.2,2.9,0.2,4.1c0.1,0.2,0.1,0.3,0,0.5s-0.2,0.3-0.3,0.4
				c-0.1,0.1-0.3,0.1-0.5,0s-0.4-0.2-0.5-0.4c-0.2-1.6-0.4-3.2-0.5-4.9c-0.1-1.7-0.2-3.3-0.3-5c-0.1-1.7-0.2-3.4-0.3-5
				c-0.1-1.7-0.3-3.3-0.6-4.9c0-0.3,0-0.5,0.2-0.6c0.1-0.1,0.3-0.1,0.5-0.1c0.7,0.2,1.4,0.6,1.9,1.1s1.1,1.2,1.6,1.9
				s0.9,1.6,1.3,2.4c0.4,0.9,0.8,1.8,1.2,2.6c0.4,0.9,0.8,1.7,1.2,2.5s0.8,1.5,1.3,2.1c0.1,0,0.1,0,0.2-0.1s0.1-0.2,0.2-0.5
				c0.1-0.2,0.2-0.6,0.4-1.1c0.2-0.5,0.4-1.2,0.7-2.1c0.3-0.9,0.7-2.1,1.1-3.5s1-3.1,1.6-5.1c0-0.1,0.1-0.2,0.2-0.3s0.3-0.1,0.4-0.1
				s0.3,0.1,0.4,0.2c0.1,0.1,0.2,0.3,0.3,0.5c0.2,1.5,0.3,3,0.4,4.7c0.1,1.6,0.3,3.3,0.4,5s0.3,3.5,0.6,5.2c0.2,1.8,0.5,3.5,0.8,5.2
				c0,0.2-0.1,0.4-0.2,0.5s-0.2,0.1-0.4,0.1c-0.2,0-0.3-0.1-0.5-0.2s-0.4-0.2-0.5-0.3L113.1,54.5z"/>
			<path class="st2" d="M125.6,72.1c-0.2-0.3-0.4-0.8-0.4-1.3c-0.1-0.5-0.1-1.1-0.1-1.7s0-1.2,0-1.8c0-0.6,0-1.1-0.1-1.5
				c-0.8,1.7-1.5,2.9-2.1,3.9c-0.7,0.9-1.3,1.6-1.8,2c-0.6,0.4-1.1,0.6-1.5,0.5s-0.8-0.2-1.1-0.5s-0.6-0.6-0.7-1
				c-0.2-0.4-0.3-0.8-0.3-1.2c-0.1-0.6-0.1-1.3,0-2.2s0.3-1.7,0.6-2.7s0.6-1.8,1-2.7s0.9-1.6,1.4-2.3s1.1-1.1,1.7-1.4
				c0.6-0.3,1.2-0.4,1.9-0.2c0.3,0,0.6,0,0.8,0c0.2,0.1,0.4,0.2,0.5,0.3c0.1,0.2,0.2,0.4,0.3,0.7c0.1,0.3,0.1,0.7,0.1,1.2
				c0,1.6,0,2.9,0.1,4s0.3,2.1,0.4,2.9s0.3,1.6,0.5,2.3s0.2,1.4,0.3,2.1c0,0.3-0.1,0.5-0.2,0.6s-0.3,0.2-0.4,0.3c-0.2,0-0.3,0-0.4,0
				C125.7,72.3,125.6,72.2,125.6,72.1z M124.2,59.9c-0.4-0.5-0.8-0.7-1.3-0.6s-0.9,0.4-1.3,0.8c-0.4,0.5-0.9,1.1-1.3,1.9
				c-0.4,0.8-0.7,1.6-1,2.4c-0.3,0.8-0.5,1.7-0.6,2.6s-0.2,1.6-0.1,2.3c0.2,0.7,0.5,1.2,0.8,1.3c0.3,0.1,0.7,0.1,1-0.2
				c0.4-0.2,0.7-0.6,1.1-1.2c0.4-0.5,0.8-1.1,1.1-1.8s0.7-1.3,1-1.9s0.5-1.2,0.7-1.6L124.2,59.9z"/>
			<path class="st2" d="M127.9,79.4c0.1-2,0.2-3.6,0.3-5c0.1-1.3,0.1-2.4,0.1-3.4c0-0.9,0-1.8,0-2.5s0-1.5-0.1-2.3
				c0-0.8-0.1-1.7-0.1-2.8c0-1-0.1-2.4-0.1-4c0-0.2,0.1-0.3,0.2-0.5c0.1-0.1,0.2-0.2,0.3-0.3s0.3-0.1,0.4,0s0.3,0.2,0.4,0.4
				l-0.1,3.1c0.5-0.7,1.2-1.3,1.8-1.9c0.7-0.6,1.4-1.1,2.1-1.4c0.7-0.4,1.4-0.6,2-0.8c0.7-0.2,1.2-0.2,1.7,0
				c0.5,0.1,0.9,0.4,1.1,0.9c0.3,0.4,0.4,1.1,0.3,1.9c-0.1,0.7-0.3,1.5-0.6,2.3c-0.4,0.8-0.8,1.6-1.4,2.4c-0.5,0.8-1.1,1.6-1.8,2.3
				c-0.6,0.7-1.3,1.4-1.9,1.9c-0.6,0.6-1.2,1-1.7,1.4c-0.5,0.3-0.9,0.5-1.2,0.5c0,0.2,0,0.5-0.1,1c0,0.4-0.1,0.9-0.1,1.4
				s-0.1,1.1-0.1,1.6s-0.1,1.1-0.1,1.6s-0.1,1-0.1,1.4s0,0.7,0,0.9c-0.1,0.1-0.2,0.2-0.3,0.2c-0.1,0.1-0.2,0.1-0.4,0.1
				c-0.1,0-0.3,0-0.4-0.1C128.1,79.8,128,79.7,127.9,79.4z M129.7,70.3c0.5-0.2,1.2-0.6,1.9-1.3c0.7-0.6,1.5-1.4,2.2-2.3
				s1.4-1.9,2-2.9s1-2.1,1.3-3.2c-0.1-0.5-0.3-0.8-0.6-1s-0.7-0.2-1.2-0.1c-0.5,0.1-1,0.3-1.5,0.6s-1.1,0.7-1.6,1.1
				c-0.5,0.4-1,0.9-1.4,1.4s-0.8,1-1,1.5L129.7,70.3L129.7,70.3z"/>
		</g>
	</g>
</g>
</svg>
