<?xml version="1.0" encoding="utf-8"?>
<!-- Generator: Adobe Illustrator 23.0.1, SVG Export Plug-In . SVG Version: 6.00 Build 0)  -->
<svg version="1.1" id="Calque_1" xmlns="http://www.w3.org/2000/svg" xmlns:xlink="http://www.w3.org/1999/xlink" x="0px" y="0px"
	 viewBox="0 0 28.9 65" style="enable-background:new 0 0 28.9 65;" xml:space="preserve" preserveAspectRatio="none">
<style type="text/css">
	.st0{fill:#860CE6;}
</style>
<g>
	<g>
		<g>
			<path class="st0" d="M22.8,16c-0.9,4.9-5.9,9-11,7.8c-5.4-1.3-7.4-5.1-7-10.4C5.3,7,10.7,4,16.6,5.6c3.6,1,8.8,6,7.4,10.2
				c-0.7,2.2,2.8,3.2,3.5,1c2-6.2-4.6-13.7-10.3-15c-7.1-1.6-14.5,2-15.7,9.4c-0.5,3.2-0.6,7.7,1,10.7c1.5,2.8,4.9,4.2,7.8,5.2
				C17.3,29.4,25,24.2,26.3,17C26.8,14.7,23.2,13.7,22.8,16L22.8,16z"/>
		</g>
		<g>
			<path class="st0" d="M12.1,27.5c0,11.4,0,22.9,0,34.3c0,2.4,3.7,2.4,3.7,0c0-11.4,0-22.9,0-34.3C15.7,25.1,12.1,25.1,12.1,27.5
				L12.1,27.5z"/>
		</g>
	</g>
	<circle class="st0" cx="14.4" cy="15.1" r="10.7"/>
</g>
</svg>
