<?xml version="1.0" encoding="utf-8"?>
<!-- Generator: Adobe Illustrator 23.0.1, SVG Export Plug-In . SVG Version: 6.00 Build 0)  -->
<svg version="1.1" id="Calque_1" xmlns="http://www.w3.org/2000/svg" xmlns:xlink="http://www.w3.org/1999/xlink" x="0px" y="0px"
	 viewBox="0 0 70 70" style="enable-background:new 0 0 70 70;" xml:space="preserve">
<style type="text/css">
	.st0{stroke:#000000;stroke-width:0.4;stroke-miterlimit:10;}
	.st1{fill:#FFFFFF;}
</style>
<path class="st0" d="M-212.8,297.9"/>
<g>
	<path class="st1" d="M46.7,28.9c-2.9-1.2-5.7-2.5-8.5-3.8c-4.8-2.1-9.4-4.4-14.3-6.2c-0.2-0.1-0.5-0.2-0.7-0.2
		c-1-0.2-1.7,0.1-2.1,0.8c-2,1.4-1.9,3.6-1.8,6.3c0.1,6.8,0.1,13.6,0.5,20.4c0.5,12.2,13.1,3.7,19,0.2c2.6-1.6,5.2-3.1,7.9-4.8
		c2.1-1.3,5.1-2.3,6.8-4.2c1.8-1.9,1.7-4.1-0.2-5.8C51.4,30.2,48.6,29.8,46.7,28.9z M47.7,35.4c-1.6,1-3.1,1.8-4.5,2.7
		c-2.9,1.8-5.7,3.6-8.7,5.1c-1.6,0.8-3,1.8-4.5,2.5c-0.6,0.4-1.3,0.6-1.9,1c-2.6,1.6-3.8,1.4-3.5-0.6c-1.2-2.4-0.1-8.6-0.2-11.3
		c0-1-0.6-8.2-0.5-10.9c5.2,2.1,10.4,4.7,15.6,7c2.3,1.1,5,2.7,7.5,3.2C49.4,34.6,50.4,33.7,47.7,35.4z"/>
	<path class="st1" d="M67.9,29.3c-1.4-10-7.2-21.3-17.5-24.1C50.2,5.1,50,5,49.8,5c-9.4-2.5-18.4-3.3-27.4,0.6
		C13.9,9.2,6.8,14.6,3.6,23.4c-4.5,12.6-0.4,30.6,10.6,39c11.3,8.6,32.1,4.4,42.7-4.1C65.7,51.5,69.3,40.3,67.9,29.3z M58.9,49.2
		c-6.8,10-20,13-31.5,12.6c-13-0.4-19.9-13.5-20.9-25.2c-0.8-10.9,4.3-19.8,13.7-24.9c9.3-5.1,18-5.1,28.3-2.6c0.1,0,0.2,0,0.2,0
		C63.6,14.9,67.2,37.2,58.9,49.2z"/>
</g>
</svg>
