<?xml version="1.0" encoding="utf-8"?>
<!-- Generator: Adobe Illustrator 23.0.1, SVG Export Plug-In . SVG Version: 6.00 Build 0)  -->
<svg version="1.1" id="Calque_1" xmlns="http://www.w3.org/2000/svg" xmlns:xlink="http://www.w3.org/1999/xlink" x="0px" y="0px"
	 viewBox="0 0 200 200" style="enable-background:new 0 0 200 200;" xml:space="preserve">
<style type="text/css">
	.st0{fill:#860CE6;}
</style>
<path d="M118.5,284.5"/>
<g>
	<path class="st0" d="M100.4,191.2l-2.9-0.6l-2.3-1.3l-1.6-1.5l-2.2-2.5l-3.4-4.1l-4.2-4.7l-3.4-4.2l-4.2-5.1l-4.3-5.3l-5.2-7
		l-5.6-7.7l-3.2-4.7l-3.7-6.1l-3.3-5.3l-3.6-6.7l-2.2-4.3l-2.4-4.9l-1.8-4.2l-1.6-4.4l-1.9-5.3l-1.1-3.8L35.2,92l-0.9-5.2l-0.5-4.3
		l-0.4-5.2v-3.8l1.1-10.3l1.1-4.3l1.1-3.2l1.3-3.7l1.4-2.9l1.4-2.3l1.8-3.2l2.2-3.2l1.9-2.5l2-2.4l2.5-2.7l2.8-2.8l3.2-2.8l2.9-2
		l2.4-1.8l1.9-1.4l3-1.8l3.4-2l4.1-2l4.1-1.6l3.9-1.5l4.1-1.3l3.8-0.9l3.2-0.6l3.3-0.6l3.4-0.4l3.4-0.4h6l3.9,0.4l4.3,0.6l7.9,1.9
		l5.8,2.2l5.3,2.8l4.2,2.7l3.8,2.8l3.3,3.2l2.3,2.7l2.3,2.8l1.9,2.9l2.4,3.8l2.3,4.3l2.2,4.9l1,2.7l0.6,1.8l0.3,1.4l0.3,1.4v1.1v0.1
		c0,0.3-0.1,1.4-0.5,2.4l-0.1,0.3c-0.1,0.4-0.3,0.6-0.4,0.9c0.1,0.4,0.3,0.8,0.4,1l0.1,0.3l0.8,2.8l0.6,2.9l0.8,4.2l0.6,4.1l0.5,5.6
		v4.7l-0.3,4.4l-0.6,6l-1.1,6l-1.5,5.7l-2.3,6.7l-2.5,6.3l-3.8,8l-3,5.2l-4.8,7.7l-3,4.6l-1.6,2.3l-4.4,5.8l-5.7,7.2l-9,10.8
		l-16,18.8l-3.3,1.5h-3.4V191.2z"/>
	<path class="st0" d="M110,12.6l3.7,0.4l4.1,0.6l7.5,1.8l5.5,2l4.9,2.5l3.9,2.5l3.4,2.7l2.9,2.8l2.2,2.5l2,2.7l1.8,2.8l2.3,3.7
		l2.2,4.1l2,4.4l1,2.5l0.5,1.6l0.3,1.1l0.1,1v0.9c0,0,0,0.8-0.3,1.3c-0.3,0.5-0.3,0.8-0.5,1.1c-0.1,0.1-0.3,0.4-0.4,0.9
		c-0.1,0.5,0.9,2.8,0.9,2.8l0.6,2.5l0.6,2.7l0.8,4.2l0.6,3.8l0.3,2.4l0.3,2.8v2.3v2l-0.3,4.2l-0.6,5.8l-1.1,5.7l-1.4,5.5l-2.2,6.5
		l-2.5,6.1l-3.7,7.9l-2.9,5.1l-4.7,7.6l-2.9,4.4l-1.6,2.3l-4.3,5.7l-5.7,7.1l-8.9,10.7c0,0-14.8,17.8-15.3,18.1
		c-0.5,0.4-1.1,0.8-1.8,0.9c-0.6,0.1-1.3,0.1-2.3,0c-1-0.1-1.5-0.4-1.9-0.5c0,0-1-0.5-1.4-0.8c-0.4-0.3-1.1-1.1-1.1-1.1l-2-2.4
		l-3.4-4.1l-4.2-4.7l-3.3-4.2l-4.2-5.1l-4.3-5.2l-5.2-7l-5.6-7.7l-3-4.6l-3.7-6.1l-3.3-5.3l-3.4-6.5l-2.2-4.3l-2.3-4.8l-1.6-4.2
		l-1.6-4.3l-1.8-5.2l-1.1-3.7L39,90.7l-0.9-4.9l-0.5-4.2l-0.4-4.3v-3.6l0.4-3l0.4-3.3l0.4-3.4l1-3.9l1-3l1.1-3.4l1.3-2.5l1.3-2.2
		l1.8-3l2-2.9l2-2.5l1.8-2.2l2.4-2.5l2.7-2.7l2.9-2.7l2.8-1.9l2.5-1.8l1.8-1.3l2.9-1.8l3.2-1.9l3.8-1.9l3.9-1.6l3.8-1.5l3.8-1.3
		l3.6-0.9l3.2-0.6l3-0.6l3.3-0.4l3.2-0.3h2.8H110 M110.3,5h-0.4H107h-2.8h-0.4h-0.4l-3.2,0.3h-0.1H100l-3.3,0.4h-0.3h-0.3l-3,0.6H93
		h-0.1l-3.2,0.6h-0.1h-0.1l-3.6,0.9l-0.3,0.1L85.4,8l-3.8,1.3l-0.3,0.1l-0.3,0.1l-3.8,1.5l0,0l0,0l-3.9,1.6v0.1L73.1,13l-3.8,1.9
		L69.1,15l-0.3,0.1L65.6,17l-2.9,1.8L62.5,19l-0.3,0.1l-1.8,1.3l0,0l0,0L58,22.1L55.4,24L55,24.3l-0.3,0.3l-2.9,2.7l-0.1,0.1
		l-0.1,0.1l-2.7,2.7l-0.1,0.1l-0.3,0.1l-2.4,2.5L46,33.2l-0.1,0.3l-1.9,2v0.1v0.1l-2,2.5l-0.3,0.1l-0.1,0.3l-2,2.9l-0.1,0.3L39.2,42
		l-1.8,3l-1.3,2l-0.1,0.3l-0.1,0.3l-1.3,2.5l-0.3,0.5l-0.1,0.5l-1.1,3.4l-1,3L32,57.9l-0.1,0.3L31,62.1l-0.1,0.5v0.5l-0.4,3.4
		l-0.4,3.3l-0.4,3v0.4v0.4v3.7v0.3v0.3l0.3,4.3v0.3v0.3l0.5,4.2v0.3v0.3l0.9,4.9v0.1v0.1l1.1,5.2l0.1,0.3l0.1,0.3l1.1,3.7v0.1v0.1
		l1.8,5.2l0,0l0,0l1.6,4.3v0.1v0.1l1.6,4.2l0.1,0.1l0.1,0.1l2.3,4.8l2.2,4.4l0.1,0.1l0.1,0.1l3.4,6.5l0.1,0.3l0.1,0.3l3.3,5.3l3.7,6
		l0.1,0.1l0.1,0.1l3,4.6l0.1,0.1l0.1,0.1l5.6,7.7l0,0l0,0l5.2,7l0.1,0.1l0.1,0.1l4.3,5.2l4.2,5.1l3.3,4.2l0.1,0.1l0.1,0.1l4.1,4.7
		l3.4,4.1l2,2.4l0.3,0.3l0.3,0.3l1.1,1.1l0.8,0.6l0.5,0.4l1.4,0.8l0.9,0.5l1,0.3l1.9,0.5l0.9,0.3h0.9h2.3h1.8l1.5-0.8l1.8-0.9
		l1.4-0.8l1-1.3l15.3-18.1l0,0l0,0l8.9-10.7l0,0l0,0l5.7-7.1v-0.1v-0.1l4.3-5.7l0,0l0,0l1.6-2.3l0.1-0.1l0.1-0.1l2.9-4.4l0.1-0.1
		l0.1-0.1l4.7-7.6v-0.1v-0.1l2.9-5.1l0.1-0.3l0.1-0.3l3.7-7.9l0.1-0.3l0.1-0.3l2.5-6.1l0.1-0.3l0.1-0.3l2.2-6.5l0.1-0.3l0.1-0.3
		l1.4-5.5v-0.3v-0.3l1.1-5.7l0.1-0.4v-0.4l0.6-5.8v-0.1v-0.1l0.3-4.2v-0.3v-0.3v-2v-2.3v-0.4v-0.4l-0.3-2.8l-0.3-2.4v-0.3v-0.3
		l-0.6-3.8v-0.1v-0.1l-0.8-4.2v-0.1v-0.1l-0.6-2.7v-0.1v-0.1l-0.6-2.5l-0.1-0.5l0,0c0.5-1.4,0.6-2.7,0.6-3.3V55v-0.1V54v-0.5
		l-0.1-0.5l-0.1-1v-0.3v-0.3l-0.1-0.8l-0.1-0.5l-0.1-0.4l-0.5-1.6V48v-0.1l-1-2.5v-0.1v-0.1l-2-4.7l-0.1-0.3l-0.1-0.3l-2.2-4.1
		l-0.1-0.3l-0.1-0.1l-2.3-3.7v-0.1v-0.1l-1.8-2.8l-0.3-0.3l-0.3-0.3l-2-2.7l-0.1-0.1l-0.1-0.1l-2.2-2.5l-0.3-0.3l-0.3-0.3l-2.9-2.8
		l-0.4-0.4l-0.4-0.3l-3.4-2.7l-0.3-0.1l-0.3-0.1l-3.9-2.5l-0.3-0.1l-0.3-0.1l-4.9-2.5l-0.4-0.3l-0.4-0.1l-5.5-2L127.7,8l-0.4-0.1
		l-7.5-1.8L119.4,6H119L115,5.4h-0.3h-0.3L110.7,5L110.3,5L110.3,5z"/>
</g>
</svg>
