<?xml version="1.0" encoding="utf-8"?>
<!-- Generator: Adobe Illustrator 23.0.1, SVG Export Plug-In . SVG Version: 6.00 Build 0)  -->
<svg version="1.1" id="Calque_1" xmlns="http://www.w3.org/2000/svg" xmlns:xlink="http://www.w3.org/1999/xlink" x="0px" y="0px"
	 viewBox="0 0 73.3 69.7" style="enable-background:new 0 0 73.3 69.7;" xml:space="preserve">
<style type="text/css">
	.st0{fill:#FFFFFF;}
</style>
<g>
	<g>
		<path class="st0" d="M43.3,21.3c1.8-1.2,0.1-4.1-1.7-2.9c-3.4,2.2-5.9,7.9-2.1,11c3,2.4,10.2,3,13,0.2c3-3,2.3-8.6-1.2-10.8
			c-2.1-1.4-4.7-1.7-7.2-1.7c-2.3,0-4.9,0-6.5,1.8c-1.4,1.6,1,4,2.4,2.4s6.2-0.9,7.9-0.4c2.5,0.8,4,3.1,2.5,5.7
			c-1.3,2.1-5.8,1.8-7.9,0.7C39.9,25.9,41.1,22.7,43.3,21.3L43.3,21.3z"/>
	</g>
	<g>
		<path class="st0" d="M24.3,35c-1.5-1.6-3.8,0.8-2.4,2.4c3.2,3.5,8.3,12,13.5,12.5c3.9,0.4,11.3-3.8,14.2-6.5
			c5.2-4.8,10.1-10.8,14-16.8c4.4-6.8,4.8-14.9,6.2-22.7c0.2-1.1-0.4-2.1-1.6-2.1c-10.5-0.4-20.6,2.8-28.8,9.4
			c-5,4-9.5,8.8-13.9,13.5c-2.9,3.1-4.8,6.1-4.8,10.4c0,2.2,3.4,2.2,3.4,0c0-5.6,5.4-9.7,8.9-13.3c3-3.1,6.1-6.2,9.5-8.8
			C49.9,7.5,59,4.8,68.1,5.1C67.6,4.4,67,3.7,66.5,3c-1,5.9-1.4,12.5-3.7,18c-2.5,5.7-7,10.6-11.1,15.2c-3.5,4-9,9.9-14.8,9.9
			C32.1,46.2,27.2,38.1,24.3,35L24.3,35z"/>
	</g>
	<g>
		<path class="st0" d="M25.9,25.1c2.2,0.1,2.2-3.2,0-3.4c-6.6-0.4-19-1.1-22.2,6.3c-0.5,1.1,0.1,2.6,1.5,2.5
			c6.1-0.2,12.1,0,18.1,0.7c2.2,0.2,2.1-3.1,0-3.4c-6-0.7-12-0.9-18.1-0.7c0.5,0.8,1,1.7,1.5,2.5C9.2,23.8,20.6,24.8,25.9,25.1
			L25.9,25.1z"/>
	</g>
	<g>
		<path class="st0" d="M48.4,43.3c-0.2-2.1-3.5-2.2-3.4,0c0.3,3.7,0.4,7.5,0.4,11.2c0,4.3-1.9,7.3-3.9,10.9c1,0.3,2.1,0.6,3.1,0.8
			c0-6.1,1.1-14.5-4.2-18.8c-1.7-1.4-4.1,1-2.4,2.4c4.4,3.6,3.2,11.4,3.2,16.5c0,1.6,2.3,2.3,3.1,0.8c1.8-3.1,3.9-6.2,4.2-9.8
			C49.1,52.7,48.7,47.9,48.4,43.3L48.4,43.3z"/>
	</g>
	<g>
		<path class="st0" d="M26.7,42.8c1.9-1,0.2-3.9-1.7-2.9c-6,3-10.7,7.3-11.7,14.2c-0.2,1.2,0.4,2,1.6,2.1c4.2,0.4,6.2-1.5,9.6-3.4
			c3.3-1.9,5.6-3.9,6.8-7.6c0.7-2.1-2.6-2.9-3.2-0.9c-1.1,3.3-3.3,4.4-6,6.1c-2.4,1.5-4,2.8-7.1,2.5c0.5,0.7,1.1,1.4,1.6,2.1
			C17.4,48.9,21.4,45.5,26.7,42.8L26.7,42.8z"/>
	</g>
	<g>
		<path class="st0" d="M24.2,41c2.2-0.1,2.2-3.5,0-3.4c-5.8,0.3-10.8,5-14.6,9C5,51.6,3.7,56.7,4,63.3c0,0.7,0.5,1.4,1.2,1.6
			c6.4,1.8,13.6,1.1,18.7-3.1c5.4-4.4,9.2-8.3,8.2-15.6c-0.3-2.1-3.5-1.2-3.2,0.9c0.8,5.8-3.2,9.2-7.3,12.4
			c-4.3,3.2-10.4,3.6-15.5,2.2c0.4,0.5,0.8,1.1,1.2,1.6C7.1,57.7,8.1,53.2,12,49.1C15,45.8,19.4,41.2,24.2,41L24.2,41z"/>
	</g>
</g>
</svg>
