<?xml version="1.0" encoding="utf-8"?>
<!-- Generator: Adobe Illustrator 23.0.1, SVG Export Plug-In . SVG Version: 6.00 Build 0)  -->
<svg version="1.1" id="Calque_1" xmlns="http://www.w3.org/2000/svg" xmlns:xlink="http://www.w3.org/1999/xlink" x="0px" y="0px"
	 viewBox="0 0 52 65" style="enable-background:new 0 0 52 65;" xml:space="preserve">
<style type="text/css">
	.st0{fill:#FFFFFF;}
</style>
<g>
	<g>
		<path class="st0" d="M22,6.4c2,0,4.1,0,6.1,0c1.9,0,1.9-3,0-3c-2,0-4.1,0-6.1,0C20,3.5,20,6.4,22,6.4L22,6.4z"/>
	</g>
	<g>
		<g>
			<path class="st0" d="M27.2,34.5C27,34.3,26.9,34.3,27.2,34.5c0,0.2,0,0.4,0.1,0.5c0.1,0.4,0.3,0.9,0.3,1.4
				c-0.1,1-0.9,0.8-1.7,0.8c-0.4,0-1,0.1-1.3,0c-0.5-0.1-0.3,0.2-0.6-0.3c-0.3-0.7-0.3-2.2-0.1-2.9c-0.2,0.3-0.5,0.6-0.7,0.9
				c0.6-0.4,2-0.2,2.7-0.2c1.9,0,1.9-2.9,0-3c-1.2,0-3-0.1-4,0.5c-1.1,0.6-1,2.1-1,3.2c0.1,2.6,0.8,4.8,3.7,4.8c2.3,0,5,0.1,5.8-2.5
				c0.6-1.9-0.2-5.4-2.3-6C26.1,31.1,25.4,34,27.2,34.5L27.2,34.5z"/>
		</g>
		<g>
			<path class="st0" d="M24,23.7c0,3.1,0,6.2,0.1,9.4c0.1,1.9,3,1.9,3,0C27,29.9,27,26.8,27,23.7C27,21.8,24,21.8,24,23.7L24,23.7z"
				/>
		</g>
		<g>
			<path class="st0" d="M28.4,58.6c-5.7-0.2-10.7,0.3-15.4-3.9c-3.3-3-6.8-7.2-8.2-11.5C3.7,39.6,3.4,33,4.1,29.1
				c0.8-4.6,6.1-9.9,9.6-12.7c4.5-3.5,10.8-3.7,16.4-3.6c5.6,0,9.2,2.9,12.8,7c7.8,8.8,7.2,22.5-0.3,31.1c-1.2,1.4,0.8,3.5,2.1,2.1
				c1.9-2.2,4.5-4.4,5.7-7.1c1.2-2.7,0.9-6,0.9-8.9c0-6.2-0.8-12.3-4.7-17.3c-3.2-4.3-7.7-9-13.2-9.7c-5.6-0.8-13.9-0.3-19,2.4
				C9.9,14.7,4.2,20.8,2,25.5c-2,4.4-1.4,12-0.5,16.6c1.1,6.1,6.2,12.2,10.9,16c4.7,3.9,10.1,3.2,16,3.4
				C30.3,61.6,30.3,58.6,28.4,58.6L28.4,58.6z"/>
		</g>
		<g>
			<path class="st0" d="M41.4,47.7c0,1.6,0,3.2-0.1,4.7c0,0.7,0.5,1.2,1.1,1.4c1.5,0.5,3.4,0.2,4.9,0.2c1.9,0,1.9-3,0-3
				c-0.7,0-1.5,0-2.2,0c-0.6,0-1.3,0.1-2-0.1c0.4,0.5,0.7,1,1.1,1.4c0.1-1.6,0.1-3.2,0.1-4.7C44.3,45.8,41.3,45.8,41.4,47.7
				L41.4,47.7z"/>
		</g>
		<g>
			<path class="st0" d="M44.1,14c1.4,0.8,2.9,1.6,3.6,3.2c0.3,0.7,1.4,0.9,2,0.5c0.8-0.4,0.9-1.3,0.5-2c-0.9-2-2.8-3.2-4.7-4.2
				C43.9,10.5,42.4,13.1,44.1,14L44.1,14z"/>
		</g>
		<g>
			<path class="st0" d="M46.2,14.3c-0.7,0.6-1.5,1.2-2.2,1.8c-0.6,0.5-0.5,1.6,0,2.1c0.6,0.6,1.5,0.5,2.1,0c0.7-0.6,1.5-1.2,2.2-1.8
				c0.6-0.5,0.5-1.6,0-2.1C47.7,13.7,46.9,13.8,46.2,14.3L46.2,14.3z"/>
		</g>
		<g>
			<path class="st0" d="M44.6,34c-0.2,0-0.4,0-0.6,0c-1.9,0-1.9,3,0,3c0.2,0,0.4,0,0.6,0C46.6,37,46.6,34,44.6,34L44.6,34z"/>
		</g>
		<g>
			<path class="st0" d="M23.9,53.5c0,0.4,0,0.9,0,1.3c0,1.9,3,1.9,3,0c0-0.4,0-0.9,0-1.3C26.9,51.6,23.9,51.6,23.9,53.5L23.9,53.5z"
				/>
		</g>
		<g>
			<path class="st0" d="M5.9,37.3c0.4,0,0.7,0,1.1,0c1.9,0,1.9-3,0-3c-0.4,0-0.7,0-1.1,0C4,34.3,4,37.3,5.9,37.3L5.9,37.3z"/>
		</g>
		<g>
			<path class="st0" d="M23.9,16.3c0,0.3,0.1,0.7,0.1,1c0.1,0.8,0.6,1.5,1.5,1.5c0.7,0,1.6-0.7,1.5-1.5c0-0.3-0.1-0.7-0.1-1
				c-0.1-0.8-0.6-1.5-1.5-1.5C24.7,14.8,23.8,15.5,23.9,16.3L23.9,16.3z"/>
		</g>
		<g>
			<path class="st0" d="M24.4,6.2c0,2.1,0,4.2,0,6.3c0,1.9,3,1.9,3,0c0-2.1,0-4.2,0-6.3C27.4,4.3,24.4,4.3,24.4,6.2L24.4,6.2z"/>
		</g>
		<g>
			<path class="st0" d="M4.4,12c-0.7,1.1-1.6,2-2.6,2.8c-0.6,0.5-0.5,1.6,0,2.1c0.6,0.6,1.5,0.5,2.1,0c1.2-1,2.2-2.1,3-3.4
				c0.5-0.7,0.1-1.6-0.5-2C5.7,11,4.9,11.3,4.4,12L4.4,12z"/>
		</g>
		<g>
			<path class="st0" d="M4.5,17c0.3,0.1,0.5,0.3,0.7,0.5c0.4,0.4,0.8,0.6,1.2,1c1.4,1.3,3.5-0.8,2.1-2.1c-0.4-0.4-0.9-0.8-1.4-1.1
				c0.2,0.2,0.4,0.4,0.5,0.5c-0.6-0.8-1.3-1.4-2.3-1.7C3.4,13.6,2.7,16.5,4.5,17L4.5,17z"/>
		</g>
	</g>
</g>
</svg>
