<?xml version="1.0" encoding="utf-8"?>
<!-- Generator: Adobe Illustrator 23.0.1, SVG Export Plug-In . SVG Version: 6.00 Build 0)  -->
<svg version="1.1" id="Calque_1" xmlns="http://www.w3.org/2000/svg" xmlns:xlink="http://www.w3.org/1999/xlink" x="0px" y="0px"
	 viewBox="0 0 312.4 265.9" style="enable-background:new 0 0 312.4 265.9;" xml:space="preserve">
<style type="text/css">
	.st0{fill:#860CE6;}
	.st1{fill:#FFFFFF;}
</style>
<circle class="st0" cx="156.2" cy="133" r="133"/>
<g>
	<g>
		<path d="M-68.5,28.9c5.3,1.6,6.4,6.9,4.1,11.3c-1.1,2.2-2.5,3.6-3.1,6c-0.7,3.1,2.6,5,4.8,6.1c1,0.5,2.2,0.7,3.3,0.9
			c2.9,0.3,4.6,1.9,7.2,2.6c2.5,2.1,2.2,3.7-0.9,4.8c-2,0.1-3.9,0-5.9,0c-3.3,0-6.6,0-9.9,0.1c-2.6,0-5.3,0-7.9,0.1
			c-1.3,0-2.6,0-3.9,0c-0.7,0-1.3,0-2,0c-2.7,0.6-4-0.9-4.2-4.4c3.1-3.9,10.3-2.2,13.9-5.5c1.9-1.8,3-3.8,2.2-6.3
			c-1-3.1-3.2-0.3-3.9-5.7c-0.6-4.3,0.4-9.3,5.7-9.9c1.6-0.2,1.6-2.7,0-2.5c-4.9,0.5-7.7,3.6-8.3,8.4c-0.3,2.1-0.2,5.2,0.7,7.1
			c0.5,0.9,0.9,1.8,1.8,2.4c6.2,4.1-5.8,6.9-6.9,7.1c-3.1,0.8-10.4,3.4-8.7,8.2c0.8,2.1,1.6,2.9,3.7,3.6c3.8,1.2,9.8,0.1,13.7,0
			c4.6,0,9.2-0.1,13.8-0.1c2.4,0,7,0.9,9.2-0.5c2.8-1.8,2.5-7.7-0.8-9c-2.4-0.9-4.6-2.6-7.1-2.8c-4.1-0.5-8.8-3.2-5.4-8.1
			c1.1-1.6,1.7-2.8,2.2-4.6c1.5-5.5-1.6-10.1-6.9-11.7C-69.3,26-70,28.4-68.5,28.9L-68.5,28.9z"/>
	</g>
	<g>
		<path d="M-71.2,69.3c0.8,0,1.5,0,2.3,0c0.3,0,0.6,0,0.9,0c0.2,0,0.3,0,0.5,0c0.7,0.1,0.6-0.1,0-0.5c0,0.8,0,1.5,0,2.3
			c0,0.3,0,0.6,0.1,0.9c0,0.2,0,0.3,0.1,0.5c0,0.4,0.1,0.4,0.4,0c-0.5,0.2-1.5,0-2.1,0.1c-0.8,0-1.5,0-2.3,0.1
			c0.5,0.7,0.7,0.8,0.6,0.1c0-0.5,0-0.9,0-1.4c0-0.9-0.1-1.8-0.2-2.8c-0.2-1.6-2.7-1.6-2.5,0c0.1,1.2,0.2,2.5,0.2,3.7
			c0,1-0.2,2.2,1,2.7c1,0.5,2.5,0.1,3.6,0.1c1,0,2.3,0.1,3.1-0.6c0.7-0.7,0.7-1.5,0.6-2.4c-0.1-0.6-0.1-1.2-0.1-1.8
			c0-0.6,0.2-1.4-0.1-2c-0.3-0.9-1-1.3-2-1.4c-1.4-0.1-2.8,0-4.2,0C-72.8,66.8-72.8,69.3-71.2,69.3L-71.2,69.3z"/>
	</g>
	<g>
		<path d="M-70.1,63c0,1.2,0,2.4,0,3.7c0,1.6,2.5,1.6,2.5,0c0-1.2,0-2.4,0-3.7C-67.6,61.4-70.1,61.4-70.1,63L-70.1,63z"/>
	</g>
	<g>
		<path d="M-65.4,72c4.8,0,9.7,0,14.5-0.1c1.6,0,1.6-2.5,0-2.5c-4.8,0-9.7,0-14.5,0.1C-67,69.5-67,72-65.4,72L-65.4,72z"/>
	</g>
	<g>
		<path d="M-72.6,69.5c-4.8,0-9.7,0-14.5,0c-1.6,0-1.6,2.5,0,2.5c4.8,0,9.7,0,14.5,0C-71,72-71,69.5-72.6,69.5L-72.6,69.5z"/>
	</g>
</g>
<text transform="matrix(1 0 0 1 -95.2229 91.7485)" style="font-family:'HelveticaNeue-Bold'; font-size:5px;">Created by Dinosoft Labs</text>
<text transform="matrix(1 0 0 1 -95.2229 96.7485)" style="font-family:'HelveticaNeue-Bold'; font-size:5px;">from the Noun Project</text>
<g>
	<path class="st1" d="M157.9,42.3c-5.7,0.5-9.2,2-11.1,2.9c-2,0.9-6.1,4.3-7.3,5.2s-4.6,5-5.2,6.3c-0.6,1.2-2.9,5.6-3.1,6.3
		s-1,3.7-1.2,5.6c0,0-1.4,8.7-1.4,11.5c0,2.8,0,1.1,0,4.1c-0.2,6.1,1.9,15.5,1.9,15.5s0.8,3.4,3.2,8.3c0.3,0.6,0.5,0.9,1.8,2
		s6,3.1,6,3.1s2.2,1,3,1.6c0.8,0.6,1.9,1.8,2.4,2.4c0.5,0.7,1.6,2.7,1.6,2.7s1,1.9,1.2,2.7s1,3.8,1,3.8s0.7,2.9,0.8,4.1
		c0.1,1.2-0.1,4.1-0.1,4.1l-0.2,3.7h13.4c0,0-0.2-3.8,0-5.2c0.2-1.4,2.1-6.7,2.1-6.7l3-7.1l4.7-7.9l5.2-8l3.4-6.1l2.2-5.4l1.5-5.6
		l0.8-4.7c0,0,0.5-3.9,0-7.8c0-1-0.1-3.3-1.2-7.8c-1.3-3.6-2.4-7.5-5.3-10.7c-2.9-3.2-2.9-3.2-2.9-3.2s-2.4-2.3-3.6-3.3
		c-1.2-1-4.4-2.9-4.4-2.9l-3.3-1.9c0,0-3.4-1.6-5-1.8S160,42.1,157.9,42.3z"/>
	<path class="st1" d="M53.1,182.9c0.5,8,3.6,15.6,5.6,17.4c5,3.8,10.3,4.7,11.7,4.7c1.4,0,31,0,31,0l71.8-0.8c0,0,54.3-0.3,65.9-0.6
		c14.8-0.7,21.8-1.9,23.9-6.6c0.6-9-6.7-13.1-8.2-14.1c-1.5-0.9-28.2-11.5-33.3-13.2c-10.8-2.7-25.1-4.6-47.1-16.4
		c-2.6-2.4-3.3-1.8-6.6-7.8c-3.3-6-3.5-8.6-3.5-8.6h-12.6c0,0-1.4,4.1-4.7,8.3c-3.3,4.3-4.9,6.8-8.5,10.1c-3.6,3.2-14,7.5-20.1,9.2
		c-6.1,1.7-27.1,4.2-30.8,4.9c-3.7,0.7-17.2,4-19.5,4.9C59.4,177.3,53.8,181.5,53.1,182.9z"/>
</g>
</svg>
